# Blender 5.2.0 LTS
# www.blender.org
mtllib moeda.mtl
o Coin.tris
v -0.329316 0.001098 0.105341
v -0.341470 0.001098 0.115832
v -0.341470 0.001098 -0.113978
v -0.329316 0.001098 -0.103488
v -0.315322 -0.130359 0.115832
v -0.304093 -0.125708 0.105341
v -0.304093 -0.125708 -0.103488
v -0.315322 -0.130359 -0.113978
v -0.240857 -0.241803 0.115832
v -0.232263 -0.233209 0.105341
v -0.232263 -0.233209 -0.103488
v -0.240857 -0.241803 -0.113978
v -0.129413 -0.316268 0.115832
v -0.124762 -0.305039 0.105341
v -0.124762 -0.305039 -0.103488
v -0.129413 -0.316268 -0.113978
v 0.002044 -0.342416 0.115832
v 0.002044 -0.330262 0.105341
v 0.002044 -0.330262 -0.103488
v 0.002044 -0.342416 -0.113978
v 0.133501 -0.316268 0.115832
v 0.128850 -0.305039 0.105341
v 0.128850 -0.305039 -0.103488
v 0.133501 -0.316268 -0.113978
v 0.244945 -0.241803 0.115832
v 0.236350 -0.233209 0.105341
v 0.236350 -0.233209 -0.103488
v 0.244945 -0.241803 -0.113978
v 0.319409 -0.130360 0.115832
v 0.308180 -0.125708 0.105341
v 0.308180 -0.125708 -0.103488
v 0.319409 -0.130360 -0.113978
v 0.345558 0.001098 0.115832
v 0.333404 0.001098 0.105341
v 0.333404 0.001098 -0.103488
v 0.345558 0.001098 -0.113978
v 0.319409 0.132555 0.115832
v 0.308180 0.127903 0.105341
v 0.308180 0.127903 -0.103488
v 0.319409 0.132555 -0.113978
v 0.244945 0.243999 0.115832
v 0.236351 0.235404 0.105341
v 0.236351 0.235404 -0.103488
v 0.244945 0.243999 -0.113978
v 0.133501 0.318463 0.115832
v 0.128850 0.307234 0.105341
v 0.128850 0.307234 -0.103488
v 0.133501 0.318463 -0.113978
v 0.002044 0.344612 0.115832
v 0.002044 0.332458 0.105341
v 0.002044 0.332458 -0.103488
v 0.002044 0.344612 -0.113978
v -0.129413 0.318463 0.115832
v -0.124762 0.307234 0.105341
v -0.124762 0.307234 -0.103488
v -0.129413 0.318463 -0.113978
v -0.240857 0.243999 0.115832
v -0.232263 0.235405 0.105341
v -0.232263 0.235405 -0.103488
v -0.240857 0.243999 -0.113978
v -0.315322 0.132555 0.115832
v -0.304093 0.127904 0.105341
v -0.304093 0.127904 -0.103488
v -0.315322 0.132555 -0.113978
v -0.486897 0.001098 0.115832
v -0.497956 0.001098 0.104986
v -0.459896 -0.190244 0.104986
v -0.449679 -0.186012 0.115832
v -0.449679 -0.186012 -0.113978
v -0.459896 -0.190244 -0.103132
v -0.497956 0.001098 -0.103132
v -0.486897 0.001098 -0.113978
v -0.351510 -0.352456 0.104985
v -0.343690 -0.344636 0.115832
v -0.343690 -0.344636 -0.113978
v -0.351510 -0.352456 -0.103132
v -0.189298 -0.460842 0.104985
v -0.185066 -0.450625 0.115832
v -0.185066 -0.450625 -0.113978
v -0.189298 -0.460842 -0.103132
v 0.002044 -0.498902 0.104985
v 0.002044 -0.487843 0.115832
v 0.002044 -0.487843 -0.113978
v 0.002044 -0.498902 -0.103132
v 0.193385 -0.460842 0.104985
v 0.189153 -0.450625 0.115832
v 0.189153 -0.450625 -0.113978
v 0.193385 -0.460842 -0.103132
v 0.355597 -0.352456 0.104985
v 0.347777 -0.344636 0.115832
v 0.347777 -0.344636 -0.113978
v 0.355597 -0.352456 -0.103132
v 0.463983 -0.190244 0.104985
v 0.453766 -0.186012 0.115832
v 0.453766 -0.186012 -0.113978
v 0.463983 -0.190244 -0.103132
v 0.502044 0.001098 0.104985
v 0.490985 0.001098 0.115832
v 0.490985 0.001098 -0.113978
v 0.502044 0.001098 -0.103132
v 0.463984 0.192439 0.104985
v 0.453766 0.188207 0.115832
v 0.453766 0.188207 -0.113978
v 0.463984 0.192439 -0.103132
v 0.355597 0.354651 0.104986
v 0.347777 0.346831 0.115832
v 0.347777 0.346831 -0.113978
v 0.355597 0.354651 -0.103132
v 0.193386 0.463037 0.104986
v 0.189154 0.452820 0.115832
v 0.189154 0.452820 -0.113978
v 0.193386 0.463037 -0.103132
v 0.002044 0.501098 0.104986
v 0.002044 0.490039 0.115832
v 0.002044 0.490039 -0.113978
v 0.002044 0.501098 -0.103132
v -0.189298 0.463037 0.104986
v -0.185066 0.452820 0.115832
v -0.185066 0.452820 -0.113978
v -0.189298 0.463037 -0.103132
v -0.351510 0.354651 0.104986
v -0.343690 0.346831 0.115832
v -0.343690 0.346831 -0.113978
v -0.351510 0.354651 -0.103132
v -0.459896 0.192440 0.104986
v -0.449679 0.188207 0.115832
v -0.449679 0.188207 -0.113978
v -0.459896 0.192440 -0.103132
v -0.304796 0.001098 0.042161
v -0.316951 0.001098 0.052652
v -0.292669 -0.120976 0.052652
v -0.281440 -0.116325 0.042161
v -0.281440 -0.116325 -0.040307
v -0.292669 -0.120976 -0.050798
v -0.316951 0.001098 -0.050798
v -0.304796 0.001098 -0.040307
v -0.223519 -0.224465 0.052652
v -0.214925 -0.215871 0.042161
v -0.214925 -0.215871 -0.040307
v -0.223519 -0.224465 -0.050798
v -0.120030 -0.293615 0.052652
v -0.115379 -0.282386 0.042161
v -0.115379 -0.282386 -0.040307
v -0.120030 -0.293615 -0.050798
v 0.002044 -0.317897 0.052652
v 0.002044 -0.305742 0.042161
v 0.002044 -0.305742 -0.040307
v 0.002044 -0.317897 -0.050798
v 0.124117 -0.293615 0.052652
v 0.119466 -0.282386 0.042161
v 0.119466 -0.282386 -0.040307
v 0.124117 -0.293615 -0.050798
v 0.227607 -0.224465 0.052652
v 0.219012 -0.215871 0.042161
v 0.219012 -0.215871 -0.040307
v 0.227607 -0.224465 -0.050798
v 0.296756 -0.120976 0.052652
v 0.285527 -0.116325 0.042161
v 0.285527 -0.116325 -0.040307
v 0.296756 -0.120976 -0.050798
v 0.321038 0.001098 0.052652
v 0.308884 0.001098 0.042161
v 0.308884 0.001098 -0.040307
v 0.321038 0.001098 -0.050798
v 0.296756 0.123171 0.052652
v 0.285527 0.118520 0.042161
v 0.285527 0.118520 -0.040307
v 0.296756 0.123171 -0.050798
v 0.227607 0.226661 0.052652
v 0.219013 0.218066 0.042161
v 0.219013 0.218066 -0.040307
v 0.227607 0.226661 -0.050798
v 0.124118 0.295810 0.052652
v 0.119466 0.284581 0.042161
v 0.119466 0.284581 -0.040307
v 0.124118 0.295810 -0.050798
v 0.002044 0.320092 0.052652
v 0.002044 0.307938 0.042161
v 0.002044 0.307938 -0.040307
v 0.002044 0.320092 -0.050798
v -0.120030 0.295810 0.052652
v -0.115379 0.284581 0.042161
v -0.115379 0.284581 -0.040307
v -0.120030 0.295810 -0.050798
v -0.223519 0.226661 0.052652
v -0.214925 0.218067 0.042161
v -0.214925 0.218067 -0.040307
v -0.223519 0.226661 -0.050798
v -0.292669 0.123172 0.052652
v -0.281440 0.118520 0.042161
v -0.281440 0.118520 -0.040307
v -0.292669 0.123172 -0.050798
vn -0.8580 0.3554 -0.3710
vn -0.9286 -0.0000 0.3710
vn -0.8580 0.3554 0.3710
vn -0.6567 -0.6567 -0.3710
vn -0.3554 -0.8580 0.3710
vn -0.6567 -0.6567 0.3710
vn -0.3554 -0.8580 -0.3710
vn -0.0000 -0.9286 0.3710
vn -0.0000 -0.9286 -0.3710
vn 0.3554 -0.8580 0.3710
vn 0.3554 -0.8580 -0.3710
vn 0.6567 -0.6567 0.3710
vn 0.6567 -0.6567 -0.3710
vn 0.8580 -0.3554 0.3710
vn 0.8580 -0.3554 -0.3710
vn 0.9286 -0.0000 0.3710
vn 0.9286 -0.0000 -0.3710
vn 0.8580 0.3554 0.3710
vn 0.8580 0.3554 -0.3710
vn 0.6567 0.6566 0.3710
vn 0.6567 0.6567 -0.3710
vn 0.3554 0.8580 0.3710
vn 0.3554 0.8580 -0.3710
vn -0.0000 0.9286 0.3710
vn -0.0000 0.9286 -0.3710
vn -0.3554 0.8580 0.3710
vn -0.3554 0.8580 -0.3710
vn -0.6567 0.6567 0.3710
vn -0.6567 0.6567 -0.3710
vn -0.3231 -0.7800 -0.5359
vn -0.0000 -0.8650 -0.5018
vn -0.0000 -0.8443 -0.5359
vn 0.3563 -0.1476 0.9226
vn 0.1476 0.3563 0.9227
vn -0.3563 0.1476 0.9226
vn -0.8580 -0.3554 -0.3710
vn -0.8580 -0.3554 0.3710
vn -0.3231 0.7800 -0.5359
vn -0.0000 0.8650 -0.5018
vn -0.3310 0.7992 -0.5018
vn 0.8443 -0.0000 0.5359
vn 0.7992 -0.3310 0.5018
vn 0.7800 -0.3231 0.5359
vn 0.7800 -0.3231 -0.5359
vn 0.8650 -0.0000 -0.5018
vn 0.8443 -0.0000 -0.5359
vn 0.7800 0.3231 -0.5359
vn 0.6117 0.6117 -0.5018
vn 0.5970 0.5970 -0.5359
vn 0.5970 0.5970 0.5359
vn 0.3310 0.7992 0.5018
vn 0.6117 0.6117 0.5018
vn 0.3310 0.7992 -0.5018
vn 0.3231 0.7800 -0.5359
vn 0.3231 0.7800 0.5359
vn -0.0000 0.8650 0.5018
vn -0.0000 0.8443 -0.5359
vn -0.0000 0.3092 0.9510
vn 0.1597 -0.3855 0.9088
vn -0.1183 0.2857 0.9510
vn -0.3231 0.7800 0.5359
vn -0.0000 0.8443 0.5359
vn -0.5970 0.5970 0.5359
vn -0.3310 0.7992 0.5018
vn -0.5970 0.5970 -0.5359
vn -0.6117 0.6117 -0.5018
vn -0.7800 0.3231 0.5359
vn -0.6116 0.6117 0.5018
vn -0.7800 0.3231 -0.5359
vn -0.7992 0.3310 -0.5018
vn -0.8650 -0.0000 0.5018
vn -0.7992 0.3310 0.5018
vn -0.8650 -0.0000 -0.5018
vn -0.8443 -0.0000 -0.5359
vn -0.7800 -0.3231 0.5359
vn -0.8443 -0.0000 0.5359
vn -0.7800 -0.3231 -0.5359
vn -0.7992 -0.3310 -0.5018
vn -0.5970 -0.5970 0.5359
vn -0.7992 -0.3310 0.5018
vn -0.5970 -0.5970 -0.5359
vn -0.6117 -0.6117 -0.5018
vn -0.3231 -0.7800 0.5359
vn -0.6117 -0.6116 0.5018
vn -0.3310 -0.7992 -0.5018
vn -0.0000 -0.3092 0.9510
vn 0.1597 0.3855 0.9088
vn -0.0000 0.4172 0.9088
vn -0.0000 -0.8443 0.5359
vn -0.3310 -0.7992 0.5018
vn 0.3231 -0.7800 0.5359
vn -0.0000 -0.8650 0.5018
vn 0.3231 -0.7800 -0.5359
vn 0.3310 -0.7992 -0.5018
vn 0.5970 -0.5970 0.5359
vn 0.3310 -0.7992 0.5018
vn 0.6117 -0.6117 -0.5018
vn 0.5970 -0.5970 -0.5359
vn 0.6117 -0.6117 0.5018
vn 0.7992 -0.3310 -0.5018
vn -0.9286 -0.0000 -0.3710
vn 0.3092 -0.0000 0.9510
vn -0.3855 -0.1597 0.9088
vn 0.2857 0.1183 0.9510
vn 0.7992 0.3310 0.5018
vn 0.7800 0.3231 0.5359
vn -0.2727 -0.2727 -0.9226
vn -0.2727 0.2727 -0.9226
vn 0.2727 0.2727 -0.9227
vn -0.0000 0.3092 -0.9510
vn 0.1597 -0.3855 -0.9088
vn -0.0000 -0.4172 -0.9088
vn -0.0000 -0.3092 -0.9510
vn 0.1597 0.3855 -0.9088
vn -0.1183 -0.2857 -0.9510
vn 0.2950 -0.2950 0.9088
vn -0.2186 0.2186 0.9510
vn -0.1597 0.3855 0.9088
vn 0.1183 -0.2857 0.9510
vn -0.1183 0.2857 -0.9510
vn 0.2950 -0.2950 -0.9088
vn -0.1597 0.3855 -0.9088
vn -0.0000 0.4172 -0.9088
vn 0.3855 -0.1597 0.9088
vn -0.2857 0.1183 0.9510
vn -0.2950 0.2950 0.9088
vn 0.2186 -0.2186 0.9510
vn -0.2186 0.2186 -0.9510
vn 0.3855 -0.1597 -0.9088
vn 0.2857 -0.1183 0.9510
vn -0.4172 -0.0000 0.9088
vn 0.2186 -0.2186 -0.9510
vn 0.1183 -0.2857 -0.9510
vn -0.3092 -0.0000 0.9510
vn 0.4172 -0.0000 0.9088
vn 0.3092 -0.0000 -0.9510
vn -0.3855 -0.1597 -0.9088
vn -0.4172 -0.0000 -0.9088
vn -0.3855 0.1597 0.9088
vn -0.3092 -0.0000 -0.9510
vn -0.2857 0.1183 -0.9510
vn 0.2186 0.2186 0.9510
vn -0.2950 -0.2950 0.9088
vn -0.3855 0.1597 -0.9088
vn -0.2950 0.2950 -0.9088
vn 0.3855 0.1597 0.9088
vn -0.2857 -0.1183 0.9510
vn 0.2186 0.2186 -0.9510
vn 0.2857 0.1183 -0.9510
vn 0.7992 0.3310 -0.5018
vn 0.3855 0.1597 -0.9088
vn 0.4172 -0.0000 -0.9088
vn -0.1597 -0.3855 0.9088
vn 0.1183 0.2857 0.9510
vn 0.2857 -0.1183 -0.9510
vn 0.2950 0.2950 0.9088
vn -0.2186 -0.2186 0.9510
vn -0.1597 -0.3855 -0.9088
vn -0.2950 -0.2950 -0.9088
vn -0.2186 -0.2186 -0.9510
vn -0.2857 -0.1183 -0.9510
vn -0.0000 -0.4172 0.9088
vn -0.1183 -0.2857 0.9510
vn 0.1183 0.2857 -0.9510
vn 0.2950 0.2950 -0.9088
vn 0.8650 -0.0000 0.5018
vn 0.3563 0.1476 0.9226
vn 0.3856 -0.0000 0.9227
vn 0.3563 0.1476 -0.9227
vn 0.2727 0.2727 0.9226
vn 0.1476 0.3563 -0.9226
vn -0.0000 0.3856 -0.9226
vn -0.1476 0.3563 0.9226
vn -0.0000 0.3856 0.9227
vn -0.1476 0.3563 -0.9227
vn -0.2727 0.2727 0.9227
vn -0.3563 0.1476 -0.9227
vn -0.3856 -0.0000 -0.9226
vn -0.3563 -0.1476 0.9227
vn -0.3856 -0.0000 0.9227
vn -0.3563 -0.1476 -0.9227
vn -0.2727 -0.2727 0.9227
vn -0.1476 -0.3563 -0.9227
vn -0.1476 -0.3563 0.9226
vn -0.0000 -0.3856 -0.9226
vn 0.1476 -0.3563 0.9226
vn -0.0000 -0.3856 0.9227
vn 0.1476 -0.3563 -0.9226
vn 0.2727 -0.2727 0.9227
vn 0.2727 -0.2727 -0.9227
vn 0.3563 -0.1476 -0.9227
vn 0.3856 -0.0000 -0.9226
vt 0.097003 0.776489
vt 0.157643 0.718526
vt 0.157643 0.776489
vt 0.097003 0.602599
vt 0.157643 0.544635
vt 0.157643 0.602599
vt 0.097003 0.544635
vt 0.157643 0.486672
vt 0.097003 0.486672
vt 0.157643 0.428708
vt 0.097003 0.428708
vt 0.157643 0.370745
vt 0.097003 0.370745
vt 0.157643 0.312781
vt 0.097003 0.312781
vt 0.157643 0.254818
vt 0.097003 0.254818
vt 0.157643 0.196854
vt 0.097003 0.196854
vt 0.157643 0.138891
vt 0.097003 0.138891
vt 0.157643 0.080927
vt 0.097003 0.080927
vt 0.157643 0.022964
vt 0.097003 0.950380
vt 0.157643 0.892416
vt 0.157643 0.950380
vt 0.097003 0.892416
vt 0.157643 0.834453
vt 0.097003 0.834453
vt 0.059165 0.080927
vt 0.043271 0.022964
vt 0.059165 0.022964
vt 0.507404 0.442123
vt 0.363037 0.538586
vt 0.266573 0.394219
vt 0.097003 0.660562
vt 0.157643 0.660562
vt 0.059165 0.428708
vt 0.043271 0.486672
vt 0.043271 0.428708
vt 0.195481 0.718526
vt 0.211375 0.776489
vt 0.195481 0.776489
vt 0.059165 0.776489
vt 0.043271 0.718526
vt 0.059165 0.718526
vt 0.059165 0.660562
vt 0.043271 0.602599
vt 0.059165 0.602599
vt 0.195481 0.602599
vt 0.211375 0.544635
vt 0.211375 0.602599
vt 0.043271 0.544635
vt 0.059165 0.544635
vt 0.195481 0.544635
vt 0.211375 0.486672
vt 0.059165 0.486672
vt 0.190414 0.486672
vt 0.162157 0.428708
vt 0.190414 0.428708
vt 0.195481 0.428708
vt 0.195481 0.486672
vt 0.195481 0.370745
vt 0.211375 0.428708
vt 0.059165 0.370745
vt 0.043271 0.370745
vt 0.195481 0.312781
vt 0.211375 0.370745
vt 0.059165 0.312781
vt 0.043271 0.312781
vt 0.211375 0.254818
vt 0.211375 0.312781
vt 0.043271 0.254818
vt 0.059165 0.254818
vt 0.195481 0.196854
vt 0.195481 0.254818
vt 0.059165 0.196854
vt 0.043271 0.196854
vt 0.195481 0.138891
vt 0.211375 0.196854
vt 0.059165 0.138891
vt 0.043271 0.138891
vt 0.195481 0.080927
vt 0.211375 0.138891
vt 0.043271 0.080927
vt 0.190414 0.022964
vt 0.162157 0.080927
vt 0.162157 0.022964
vt 0.195481 0.022964
vt 0.211375 0.080927
vt 0.195481 0.892416
vt 0.211375 0.950380
vt 0.195481 0.950380
vt 0.059165 0.892416
vt 0.043271 0.950380
vt 0.043271 0.892416
vt 0.195481 0.834453
vt 0.211375 0.892416
vt 0.043271 0.834453
vt 0.059165 0.834453
vt 0.211375 0.834453
vt 0.043271 0.776489
vt 0.097003 0.718526
vt 0.190414 0.718526
vt 0.162157 0.660562
vt 0.190414 0.660562
vt 0.211375 0.660562
vt 0.195481 0.660562
vt 0.413506 0.283579
vt 0.264801 0.184218
vt 0.364163 0.035513
vt 0.064231 0.486672
vt 0.092489 0.428708
vt 0.092489 0.486672
vt 0.064231 0.022964
vt 0.092489 0.080927
vt 0.064231 0.080927
vt 0.162157 0.370745
vt 0.190414 0.370745
vt 0.190414 0.950380
vt 0.162157 0.892416
vt 0.190414 0.892416
vt 0.064231 0.428708
vt 0.092489 0.370745
vt 0.064231 0.950380
vt 0.092489 0.892416
vt 0.092489 0.950380
vt 0.162157 0.312781
vt 0.190414 0.312781
vt 0.162157 0.834453
vt 0.190414 0.834453
vt 0.064231 0.370745
vt 0.092489 0.312781
vt 0.190414 0.776489
vt 0.162157 0.718526
vt 0.064231 0.834453
vt 0.064231 0.892416
vt 0.190414 0.254818
vt 0.162157 0.254818
vt 0.064231 0.718526
vt 0.092489 0.660562
vt 0.092489 0.718526
vt 0.162157 0.776489
vt 0.064231 0.254818
vt 0.064231 0.312781
vt 0.190414 0.602599
vt 0.162157 0.602599
vt 0.092489 0.776489
vt 0.092489 0.834453
vt 0.162157 0.196854
vt 0.190414 0.196854
vt 0.064231 0.602599
vt 0.064231 0.660562
vt 0.043271 0.660562
vt 0.092489 0.196854
vt 0.092489 0.254818
vt 0.162157 0.544635
vt 0.190414 0.544635
vt 0.064231 0.776489
vt 0.162157 0.138891
vt 0.190414 0.138891
vt 0.092489 0.544635
vt 0.092489 0.602599
vt 0.064231 0.138891
vt 0.064231 0.196854
vt 0.162157 0.486672
vt 0.190414 0.080927
vt 0.064231 0.544635
vt 0.092489 0.138891
vt 0.092489 0.022964
vt 0.097003 0.022964
vt 0.162157 0.950380
vt 0.211375 0.718526
vt 0.216442 0.660562
vt 0.216442 0.718526
vt 0.038204 0.660562
vt 0.216442 0.602599
vt 0.038204 0.602599
vt 0.038204 0.544635
vt 0.216442 0.544635
vt 0.038204 0.486672
vt 0.216442 0.428708
vt 0.216442 0.486672
vt 0.038204 0.428708
vt 0.216442 0.370745
vt 0.038204 0.370745
vt 0.038204 0.312781
vt 0.216442 0.312781
vt 0.038204 0.254818
vt 0.216442 0.196854
vt 0.216442 0.254818
vt 0.038204 0.196854
vt 0.216442 0.138891
vt 0.038204 0.138891
vt 0.038204 0.080927
vt 0.211375 0.022964
vt 0.216442 0.080927
vt 0.038204 0.022964
vt 0.216442 0.892416
vt 0.216442 0.950380
vt 0.038204 0.892416
vt 0.216442 0.834453
vt 0.038204 0.834453
vt 0.216442 0.776489
vt 0.038204 0.776489
vt 0.038204 0.718526
vt 0.489072 0.486381
vt 0.455199 0.520254
vt 0.410941 0.538586
vt 0.318779 0.520254
vt 0.284905 0.486381
vt 0.266573 0.442123
vt 0.284905 0.349961
vt 0.318779 0.316087
vt 0.363037 0.297755
vt 0.410941 0.297755
vt 0.455199 0.316087
vt 0.489072 0.349961
vt 0.507404 0.394219
vt 0.059165 0.950380
vt 0.413506 0.035513
vt 0.459093 0.054396
vt 0.493985 0.089287
vt 0.512868 0.134875
vt 0.512868 0.184218
vt 0.493985 0.229805
vt 0.459094 0.264696
vt 0.364162 0.283579
vt 0.318575 0.264697
vt 0.283684 0.229805
vt 0.264801 0.134875
vt 0.283684 0.089287
vt 0.318575 0.054396
vt 0.216442 0.022964
vt 0.038204 0.950380
s 1
usemtl Material.002
f 128/1/1 66/2/2 125/3/3
f 76/4/4 77/5/5 73/6/6
f 80/7/7 81/8/8 77/5/5
f 84/9/9 85/10/10 81/8/8
f 88/11/11 89/12/12 85/10/10
f 92/13/13 93/14/14 89/12/12
f 96/15/15 97/16/16 93/14/14
f 100/17/17 101/18/18 97/16/16
f 104/19/19 105/20/20 101/18/18
f 108/21/21 109/22/22 105/20/20
f 112/23/23 113/24/24 109/22/22
f 116/25/25 117/26/26 113/27/24
f 120/28/27 121/29/28 117/26/26
f 124/30/29 125/3/3 121/29/28
f 47/31/30 180/32/31 51/33/32
f 190/34/33 142/35/34 158/36/35
f 70/37/36 73/6/6 67/38/37
f 23/39/38 148/40/39 152/41/40
f 1/42/41 189/43/42 62/44/43
f 63/45/44 135/46/45 4/47/46
f 7/48/47 140/49/48 11/50/49
f 10/51/50 141/52/51 137/53/52
f 11/50/49 144/54/53 15/55/54
f 14/56/55 145/57/56 141/52/51
f 15/55/54 148/40/39 19/58/57
f 17/59/58 86/60/59 21/61/60
f 22/62/61 145/57/56 18/63/62
f 26/64/63 149/65/64 22/62/61
f 27/66/65 152/41/40 156/67/66
f 30/68/67 153/69/68 26/64/63
f 31/70/69 156/67/66 160/71/70
f 30/68/67 161/72/71 157/73/72
f 31/70/69 164/74/73 35/75/74
f 38/76/75 161/72/71 34/77/76
f 39/78/77 164/74/73 168/79/78
f 42/80/79 165/81/80 38/76/75
f 43/82/81 168/79/78 172/83/82
f 46/84/83 169/85/84 42/80/79
f 43/82/81 176/86/85 47/31/30
f 49/87/86 110/88/87 114/89/88
f 50/90/89 173/91/90 46/84/83
f 54/92/91 177/93/92 50/94/89
f 55/95/93 180/96/31 184/97/94
f 58/98/95 181/99/96 54/92/91
f 55/95/93 188/100/97 59/101/98
f 58/98/95 189/43/42 185/102/99
f 59/101/98 192/103/100 63/45/44
f 71/104/101 67/38/37 66/2/2
f 2/105/102 68/106/103 5/107/104
f 10/51/50 131/108/105 6/109/106
f 171/110/107 155/111/108 139/112/109
f 20/113/110 87/114/111 83/115/112
f 52/116/113 111/117/114 48/118/115
f 21/61/60 90/119/116 25/120/117
f 49/121/86 118/122/118 53/123/119
f 24/124/120 91/125/121 87/114/111
f 52/126/113 119/127/122 115/128/123
f 25/120/117 94/129/124 29/130/125
f 53/123/119 122/131/126 57/132/127
f 28/133/128 95/134/129 91/125/121
f 61/135/130 65/136/131 2/105/102
f 60/137/132 119/127/122 56/138/133
f 33/139/134 94/129/124 98/140/135
f 3/141/136 69/142/137 72/143/138
f 57/132/127 126/144/139 61/135/130
f 36/145/140 95/134/129 32/146/141
f 9/147/142 68/106/103 74/148/143
f 60/137/132 127/149/144 123/150/145
f 33/139/134 102/151/146 37/152/147
f 12/153/148 69/142/137 8/154/149
f 7/48/47 135/46/45 134/155/150
f 36/145/140 103/156/151 99/157/152
f 9/147/142 78/158/153 13/159/154
f 64/160/155 72/143/138 127/149/144
f 37/152/147 106/161/156 41/162/157
f 12/153/148 79/163/158 75/164/159
f 44/165/160 103/156/151 40/166/161
f 17/59/58 78/158/153 82/167/162
f 45/168/163 106/161/156 110/88/87
f 20/113/110 79/163/158 16/169/164
f 48/118/115 107/170/165 44/165/160
f 67/38/37 65/136/131 66/2/2
f 70/37/36 72/143/138 69/142/137
f 73/6/6 68/106/103 67/38/37
f 76/4/4 69/142/137 75/164/159
f 77/5/5 74/148/143 73/6/6
f 76/4/4 79/163/158 80/7/7
f 77/5/5 82/167/162 78/158/153
f 80/7/7 83/115/112 84/9/9
f 85/10/10 82/167/162 81/8/8
f 84/9/9 87/114/111 88/11/11
f 89/12/12 86/60/59 85/10/10
f 88/11/11 91/125/121 92/13/13
f 93/14/14 90/119/116 89/12/12
f 92/13/13 95/134/129 96/15/15
f 93/14/14 98/140/135 94/129/124
f 96/15/15 99/157/152 100/17/17
f 101/18/18 98/140/135 97/16/16
f 104/19/19 99/157/152 103/156/151
f 105/20/20 102/151/146 101/18/18
f 104/19/19 107/170/165 108/21/21
f 105/20/20 110/88/87 106/161/156
f 108/21/21 111/117/114 112/23/23
f 109/22/22 114/89/88 110/88/87
f 112/23/23 115/171/123 116/172/25
f 113/27/24 118/122/118 114/173/88
f 116/25/25 119/127/122 120/28/27
f 121/29/28 118/122/118 117/26/26
f 124/30/29 119/127/122 123/150/145
f 121/29/28 126/144/139 122/131/126
f 124/30/29 127/149/144 128/1/1
f 125/3/3 65/136/131 126/144/139
f 128/1/1 72/143/138 71/104/101
f 2/105/102 6/109/106 1/42/41
f 3/141/136 7/48/47 8/154/149
f 9/147/142 6/109/106 5/107/104
f 12/153/148 7/48/47 11/50/49
f 13/159/154 10/51/50 9/147/142
f 16/169/164 11/50/49 15/55/54
f 17/59/58 14/56/55 13/159/154
f 20/113/110 15/55/54 19/58/57
f 21/61/60 18/63/62 17/59/58
f 20/113/110 23/39/38 24/124/120
f 25/120/117 22/62/61 21/61/60
f 24/124/120 27/66/65 28/133/128
f 29/130/125 26/64/63 25/120/117
f 28/133/128 31/70/69 32/146/141
f 33/139/134 30/68/67 29/130/125
f 36/145/140 31/70/69 35/75/74
f 33/139/134 38/76/75 34/77/76
f 36/145/140 39/78/77 40/166/161
f 37/152/147 42/80/79 38/76/75
f 40/166/161 43/82/81 44/165/160
f 41/162/157 46/84/83 42/80/79
f 44/165/160 47/31/30 48/118/115
f 49/87/86 46/84/83 45/168/163
f 48/118/115 51/33/32 52/116/113
f 49/121/86 54/92/91 50/94/89
f 52/126/113 55/95/93 56/138/133
f 53/123/119 58/98/95 54/92/91
f 56/138/133 59/101/98 60/137/132
f 57/132/127 62/44/43 58/98/95
f 60/137/132 63/45/44 64/160/155
f 2/105/102 62/44/43 61/135/130
f 3/141/136 63/45/44 4/47/46
f 130/174/166 132/175/167 129/176/168
f 135/46/45 133/177/169 134/155/150
f 131/108/105 138/178/170 132/175/167
f 134/155/150 139/179/109 140/49/48
f 141/52/51 138/178/170 137/53/52
f 144/54/53 139/179/109 143/180/171
f 145/57/56 142/181/34 141/52/51
f 148/40/39 143/180/171 147/182/172
f 145/57/56 150/183/173 146/184/174
f 148/40/39 151/185/175 152/41/40
f 149/65/64 154/186/176 150/183/173
f 152/41/40 155/187/108 156/67/66
f 157/73/72 154/186/176 153/69/68
f 160/71/70 155/187/108 159/188/177
f 161/72/71 158/189/35 157/73/72
f 164/74/73 159/188/177 163/190/178
f 161/72/71 166/191/179 162/192/180
f 164/74/73 167/193/181 168/79/78
f 165/81/80 170/194/182 166/191/179
f 168/79/78 171/195/107 172/83/82
f 173/91/90 170/194/182 169/85/84
f 176/86/85 171/195/107 175/196/183
f 177/197/92 174/198/184 173/91/90
f 180/32/31 175/196/183 179/199/185
f 177/93/92 182/200/186 178/201/187
f 180/96/31 183/202/188 184/97/94
f 181/99/96 186/203/189 182/200/186
f 184/97/94 187/204/190 188/100/97
f 185/102/99 190/205/33 186/203/189
f 188/100/97 191/206/191 192/103/100
f 130/174/166 190/205/33 189/43/42
f 135/46/45 191/206/191 136/207/192
f 6/109/106 130/174/166 1/42/41
f 128/1/1 71/104/101 66/2/2
f 76/4/4 80/7/7 77/5/5
f 80/7/7 84/9/9 81/8/8
f 84/9/9 88/11/11 85/10/10
f 88/11/11 92/13/13 89/12/12
f 92/13/13 96/15/15 93/14/14
f 96/15/15 100/17/17 97/16/16
f 100/17/17 104/19/19 101/18/18
f 104/19/19 108/21/21 105/20/20
f 108/21/21 112/23/23 109/22/22
f 112/23/23 116/172/25 113/24/24
f 116/25/25 120/28/27 117/26/26
f 120/28/27 124/30/29 121/29/28
f 124/30/29 128/1/1 125/3/3
f 47/31/30 176/86/85 180/32/31
f 190/34/33 129/208/168 132/209/167
f 132/209/167 138/210/170 190/34/33
f 138/210/170 142/35/34 190/34/33
f 142/35/34 146/211/174 150/212/173
f 150/212/173 154/213/176 158/36/35
f 158/36/35 162/214/180 166/215/179
f 166/215/179 170/216/182 174/217/184
f 174/217/184 178/218/187 182/219/186
f 182/219/186 186/220/189 190/34/33
f 142/35/34 150/212/173 158/36/35
f 158/36/35 166/215/179 190/34/33
f 166/215/179 174/217/184 190/34/33
f 174/217/184 182/219/186 190/34/33
f 70/37/36 76/4/4 73/6/6
f 23/39/38 19/58/57 148/40/39
f 1/42/41 130/174/166 189/43/42
f 63/45/44 192/103/100 135/46/45
f 7/48/47 134/155/150 140/49/48
f 10/51/50 14/56/55 141/52/51
f 11/50/49 140/49/48 144/54/53
f 14/56/55 18/63/62 145/57/56
f 15/55/54 144/54/53 148/40/39
f 17/59/58 82/167/162 86/60/59
f 22/62/61 149/65/64 145/57/56
f 26/64/63 153/69/68 149/65/64
f 27/66/65 23/39/38 152/41/40
f 30/68/67 157/73/72 153/69/68
f 31/70/69 27/66/65 156/67/66
f 30/68/67 34/77/76 161/72/71
f 31/70/69 160/71/70 164/74/73
f 38/76/75 165/81/80 161/72/71
f 39/78/77 35/75/74 164/74/73
f 42/80/79 169/85/84 165/81/80
f 43/82/81 39/78/77 168/79/78
f 46/84/83 173/91/90 169/85/84
f 43/82/81 172/83/82 176/86/85
f 49/87/86 45/168/163 110/88/87
f 50/90/89 177/197/92 173/91/90
f 54/92/91 181/99/96 177/93/92
f 55/95/93 51/221/32 180/96/31
f 58/98/95 185/102/99 181/99/96
f 55/95/93 184/97/94 188/100/97
f 58/98/95 62/44/43 189/43/42
f 59/101/98 188/100/97 192/103/100
f 71/104/101 70/37/36 67/38/37
f 2/105/102 65/136/131 68/106/103
f 10/51/50 137/53/52 131/108/105
f 139/112/109 133/222/169 136/223/192
f 136/223/192 191/224/191 139/112/109
f 191/224/191 187/225/190 139/112/109
f 187/225/190 183/226/188 171/110/107
f 183/226/188 179/227/185 171/110/107
f 179/227/185 175/228/183 171/110/107
f 171/110/107 167/229/181 163/230/178
f 163/230/178 159/231/177 155/111/108
f 155/111/108 151/232/175 147/233/172
f 147/233/172 143/234/171 155/111/108
f 143/234/171 139/112/109 155/111/108
f 171/110/107 163/230/178 155/111/108
f 139/112/109 187/225/190 171/110/107
f 20/113/110 24/124/120 87/114/111
f 52/116/113 115/171/123 111/117/114
f 21/61/60 86/60/59 90/119/116
f 49/121/86 114/173/88 118/122/118
f 24/124/120 28/133/128 91/125/121
f 52/126/113 56/138/133 119/127/122
f 25/120/117 90/119/116 94/129/124
f 53/123/119 118/122/118 122/131/126
f 28/133/128 32/146/141 95/134/129
f 61/135/130 126/144/139 65/136/131
f 60/137/132 123/150/145 119/127/122
f 33/139/134 29/130/125 94/129/124
f 3/141/136 8/154/149 69/142/137
f 57/132/127 122/131/126 126/144/139
f 36/145/140 99/157/152 95/134/129
f 9/147/142 5/107/104 68/106/103
f 60/137/132 64/160/155 127/149/144
f 33/139/134 98/140/135 102/151/146
f 12/153/148 75/164/159 69/142/137
f 7/48/47 4/47/46 135/46/45
f 36/145/140 40/166/161 103/156/151
f 9/147/142 74/148/143 78/158/153
f 64/160/155 3/141/136 72/143/138
f 37/152/147 102/151/146 106/161/156
f 12/153/148 16/169/164 79/163/158
f 44/165/160 107/170/165 103/156/151
f 17/59/58 13/159/154 78/158/153
f 45/168/163 41/162/157 106/161/156
f 20/113/110 83/115/112 79/163/158
f 48/118/115 111/117/114 107/170/165
f 67/38/37 68/106/103 65/136/131
f 70/37/36 71/104/101 72/143/138
f 73/6/6 74/148/143 68/106/103
f 76/4/4 70/37/36 69/142/137
f 77/5/5 78/158/153 74/148/143
f 76/4/4 75/164/159 79/163/158
f 77/5/5 81/8/8 82/167/162
f 80/7/7 79/163/158 83/115/112
f 85/10/10 86/60/59 82/167/162
f 84/9/9 83/115/112 87/114/111
f 89/12/12 90/119/116 86/60/59
f 88/11/11 87/114/111 91/125/121
f 93/14/14 94/129/124 90/119/116
f 92/13/13 91/125/121 95/134/129
f 93/14/14 97/16/16 98/140/135
f 96/15/15 95/134/129 99/157/152
f 101/18/18 102/151/146 98/140/135
f 104/19/19 100/17/17 99/157/152
f 105/20/20 106/161/156 102/151/146
f 104/19/19 103/156/151 107/170/165
f 105/20/20 109/22/22 110/88/87
f 108/21/21 107/170/165 111/117/114
f 109/22/22 113/24/24 114/89/88
f 112/23/23 111/117/114 115/171/123
f 113/27/24 117/26/26 118/122/118
f 116/25/25 115/128/123 119/127/122
f 121/29/28 122/131/126 118/122/118
f 124/30/29 120/28/27 119/127/122
f 121/29/28 125/3/3 126/144/139
f 124/30/29 123/150/145 127/149/144
f 125/3/3 66/2/2 65/136/131
f 128/1/1 127/149/144 72/143/138
f 2/105/102 5/107/104 6/109/106
f 3/141/136 4/47/46 7/48/47
f 9/147/142 10/51/50 6/109/106
f 12/153/148 8/154/149 7/48/47
f 13/159/154 14/56/55 10/51/50
f 16/169/164 12/153/148 11/50/49
f 17/59/58 18/63/62 14/56/55
f 20/113/110 16/169/164 15/55/54
f 21/61/60 22/62/61 18/63/62
f 20/113/110 19/58/57 23/39/38
f 25/120/117 26/64/63 22/62/61
f 24/124/120 23/39/38 27/66/65
f 29/130/125 30/68/67 26/64/63
f 28/133/128 27/66/65 31/70/69
f 33/139/134 34/77/76 30/68/67
f 36/145/140 32/146/141 31/70/69
f 33/139/134 37/152/147 38/76/75
f 36/145/140 35/75/74 39/78/77
f 37/152/147 41/162/157 42/80/79
f 40/166/161 39/78/77 43/82/81
f 41/162/157 45/168/163 46/84/83
f 44/165/160 43/82/81 47/31/30
f 49/87/86 50/90/89 46/84/83
f 48/118/115 47/31/30 51/33/32
f 49/121/86 53/123/119 54/92/91
f 52/126/113 51/221/32 55/95/93
f 53/123/119 57/132/127 58/98/95
f 56/138/133 55/95/93 59/101/98
f 57/132/127 61/135/130 62/44/43
f 60/137/132 59/101/98 63/45/44
f 2/105/102 1/42/41 62/44/43
f 3/141/136 64/160/155 63/45/44
f 130/174/166 131/108/105 132/175/167
f 135/46/45 136/207/192 133/177/169
f 131/108/105 137/53/52 138/178/170
f 134/155/150 133/177/169 139/179/109
f 141/52/51 142/181/34 138/178/170
f 144/54/53 140/49/48 139/179/109
f 145/57/56 146/184/174 142/181/34
f 148/40/39 144/54/53 143/180/171
f 145/57/56 149/65/64 150/183/173
f 148/40/39 147/182/172 151/185/175
f 149/65/64 153/69/68 154/186/176
f 152/41/40 151/185/175 155/187/108
f 157/73/72 158/189/35 154/186/176
f 160/71/70 156/67/66 155/187/108
f 161/72/71 162/192/180 158/189/35
f 164/74/73 160/71/70 159/188/177
f 161/72/71 165/81/80 166/191/179
f 164/74/73 163/190/178 167/193/181
f 165/81/80 169/85/84 170/194/182
f 168/79/78 167/193/181 171/195/107
f 173/91/90 174/198/184 170/194/182
f 176/86/85 172/83/82 171/195/107
f 177/197/92 178/235/187 174/198/184
f 180/32/31 176/86/85 175/196/183
f 177/93/92 181/99/96 182/200/186
f 180/96/31 179/236/185 183/202/188
f 181/99/96 185/102/99 186/203/189
f 184/97/94 183/202/188 187/204/190
f 185/102/99 189/43/42 190/205/33
f 188/100/97 187/204/190 191/206/191
f 130/174/166 129/176/168 190/205/33
f 135/46/45 192/103/100 191/206/191
f 6/109/106 131/108/105 130/174/166
