# Blender 5.2.0 LTS
# www.blender.org
mtllib pedra1.mtl
o stone_largeA
v -0.463289 0.865920 -2.488990
v 2.005530 0.865920 0.412976
v -0.319669 1.558656 -1.717402
v 1.383816 1.558656 0.284953
v 1.295551 0.865920 3.046384
v -1.256560 0.865920 2.695559
v 1.094741 1.212288 2.574194
v 0.013452 1.558656 1.980970
v -0.867026 1.558656 1.859936
v 1.564313 0.000000 0.322121
v 1.836682 0.000000 1.350445
v 2.005530 0.454608 0.412976
v 2.354720 0.454608 1.731339
v 1.010530 0.000000 2.376180
v -0.361365 -0.000000 -1.941411
v -0.980117 0.000000 2.102536
v -1.039250 -0.000000 -2.376180
v -1.405681 -0.000000 -0.145704
v -1.836682 0.000000 0.826856
v -1.405681 -0.000000 -1.578850
v -1.714791 -0.000000 -2.160326
v 1.295551 0.454608 3.046384
v -1.256560 0.454608 2.695559
v 2.354720 0.865920 1.731339
v -1.802155 0.454608 -0.186799
v -1.802155 0.865920 -0.186799
v -2.354720 0.454608 1.060072
v -2.354720 0.865920 1.060071
v -0.463289 0.454608 -2.488990
v -1.332371 0.454608 -3.046384
v 1.259344 1.558656 1.648314
v 1.624757 1.558656 1.194624
v -2.198450 0.454608 -2.769649
v -1.624757 1.558656 0.731449
v -2.198450 0.865920 -2.769649
v -1.516930 1.558656 -1.911058
v -1.802155 0.865920 -2.024167
v -1.243487 1.558656 -1.396675
v -0.919336 1.558656 -2.102005
v -1.332371 0.865920 -3.046384
v -1.802155 0.454608 -2.024167
v -1.243487 1.558656 -0.128892
vn 0.6635 0.4911 -0.5644
vn -0.0842 0.7861 0.6124
vn 0.7232 -0.6636 -0.1915
vn -0.0000 -1.0000 -0.0000
vn -0.1362 -0.0000 0.9907
vn 0.9667 -0.0000 -0.2560
vn -0.9142 -0.0000 -0.4052
vn -0.5232 -0.7764 0.3513
vn 0.4027 -0.6660 -0.6279
vn 0.0971 0.9264 0.3638
vn 0.4733 0.7941 0.3812
vn 0.7617 -0.0000 -0.6480
vn -0.7021 -0.6405 -0.3112
vn -0.1613 -0.8481 -0.5047
vn -0.5477 0.7515 0.3677
vn -0.8703 0.1688 0.4627
vn -0.8487 0.2758 0.4512
vn -0.8804 0.0758 0.4680
vn -0.0801 -0.8088 0.5827
vn -0.1704 0.8286 -0.5333
vn 0.6503 -0.5206 -0.5532
vn -0.8681 -0.1826 0.4615
vn -0.8803 -0.0782 0.4680
vn -0.8433 -0.2963 0.4483
vn 0.5399 -0.0000 -0.8418
vn -0.0000 1.0000 -0.0000
vn -0.7784 0.6278 -0.0000
vn -0.7240 0.6107 -0.3208
vn -0.3044 -0.0000 -0.9526
vn -0.8302 -0.0000 0.5575
vn -0.7537 -0.6573 -0.0000
vn 0.7788 -0.0000 0.6273
vn -1.0000 -0.0000 -0.0000
vn 0.7474 0.6342 -0.1980
vn 0.4163 0.6367 -0.6491
vn 0.4499 -0.8163 0.3624
vt 9.942363 6.107259
vt -10.591090 0.889027
vt 14.409230 0.889026
vt -7.307855 6.107257
vt 9.416702 -7.467372
vt -5.759595 -11.144030
vt 11.144030 -11.144030
vt 1.857630 -3.790719
vt -3.974120 -3.790719
vt -5.988852 10.212620
vt -11.651510 6.225208
vt -4.671305 6.225207
vt -14.937830 10.212620
vt 6.630774 15.591730
vt 10.264530 2.113657
vt 12.051720 8.861185
vt -2.371162 -12.738920
vt -6.431214 13.796170
vt -6.819224 -15.591730
vt -9.223626 -0.956060
vt -12.051720 5.425562
vt -9.223626 -10.359910
vt -11.251910 -14.175370
vt 11.144030 5.681890
vt -5.759592 2.982992
vt 11.144030 2.982992
vt -5.759592 5.681890
vt -14.937820 5.681890
vt -5.988850 2.982992
vt -5.988850 5.681890
vt -14.937820 2.982992
vt 12.619440 2.982992
vt 3.670460 5.681890
vt 3.670460 2.982992
vt 12.619440 5.681890
vt 10.087990 14.850170
vt -2.213880 10.116810
vt 7.868636 10.116810
vt -2.838305 14.850170
vt 14.157530 6.289110
vt 11.375950 10.288090
vt 8.873235 6.289109
vt 18.150681 10.288090
vt -3.267880 -7.803802
vt 2.582912 -13.839160
vt 5.193651 -7.803802
vt 0.582541 -4.282485
vt -10.235430 -11.761650
vt 0.844262 -11.761650
vt -3.239949 -4.282484
vt -8.648931 -8.022066
vt -10.591090 5.681890
vt 14.409230 2.982992
vt 14.409230 5.681890
vt -10.591090 2.982992
vt 2.862960 5.648948
vt 12.619440 9.533132
vt 3.670463 9.533133
vt 9.843162 5.648949
vt 6.403553 14.355900
vt 2.243696 19.985590
vt 1.750084 14.355900
vt 8.209682 19.985590
vt -1.958431 -1.915953
vt 10.087990 -8.806470
vt 6.960716 -1.915952
vt -2.838305 -8.806469
vt -17.278450 4.301269
vt -15.744620 9.030178
vt -22.818291 4.301269
vt -11.922130 9.030178
vt -5.759592 16.834160
vt 8.692344 11.762210
vt 11.144030 16.834160
vt -4.492480 11.762210
vt 2.243702 -14.801240
vt 5.664685 -6.681983
vt 1.548156 -6.681981
vt 8.209688 -14.801240
vt -10.591090 6.850760
vt 11.239190 3.357009
vt 14.409230 6.850761
vt -8.261053 3.357009
vt -17.278450 2.982992
vt -22.818291 5.681890
vt -22.818291 2.982992
vt -17.278450 5.681890
vt -17.798269 0.972438
vt -17.278450 4.095719
vt -22.818291 4.095719
vt -13.477190 0.972437
vt 18.150681 5.681890
vt 11.375940 2.982992
vt 18.150681 2.982992
vt 11.375940 5.681890
vt 9.953611 -12.539750
vt 8.159362 -9.164533
vt 6.032390 -13.792680
vt 8.159362 -0.845745
vt 5.689151 12.204300
vt 2.097568 -11.269040
vt -0.088267 12.998490
vt -8.263411 10.815710
vt -9.080157 1.869774
vt -10.661140 7.838741
vt 10.661140 4.799536
vt -1.225718 -3.000531
vt -9.164533 2.838970
vt -13.281930 -3.000531
vt -0.845745 2.838970
vt 12.619440 -2.406015
vt 2.532618 3.334147
vt 3.670462 -2.406015
vt 8.707412 3.334146
vt 8.209681 5.681890
vt 2.243694 2.982992
vt 8.209681 2.982992
vt 2.243694 5.681890
vt 10.088000 2.982992
vt -2.838303 5.681890
vt -2.838303 2.982992
vt 10.088000 5.681890
vt -10.359910 6.062467
vt -1.225718 10.020530
vt -13.281930 10.020530
vt -0.956060 6.062467
vt -10.235430 5.681890
vt 0.844257 2.982992
vt 0.844257 5.681890
vt -10.235430 2.982992
vt -1.225718 2.982992
vt -13.281930 5.681890
vt -13.281930 2.982992
vt -1.225718 5.681890
vt -10.307100 2.644571
vt -5.988851 -3.234445
vt -4.132308 2.644571
vt -14.937830 -3.234445
vt 12.523970 2.568312
vt 11.375950 -3.326286
vt 18.150681 -3.326286
vt 7.849400 2.568313
vt -10.235430 17.362320
vt 0.658524 12.198520
vt 0.844260 17.362320
vt -7.983634 12.198520
s 1
usemtl stone.014
f 3/1/1 2/2/1 1/3/1
f 2/2/1 3/1/1 4/4/1
f 7/5/2 6/6/2 5/7/2
f 6/6/2 7/5/2 8/8/2
f 6/6/2 8/8/2 9/9/2
f 12/10/3 11/11/3 10/12/3
f 11/11/3 12/10/3 13/13/3
f 14/14/4 10/15/4 11/16/4
f 10/15/4 14/14/4 15/17/4
f 15/17/4 14/14/4 16/18/4
f 15/17/4 16/18/4 17/19/4
f 17/19/4 16/18/4 18/20/4
f 18/20/4 16/18/4 19/21/4
f 20/22/4 17/19/4 18/20/4
f 17/19/4 20/22/4 21/23/4
f 5/24/5 23/25/5 22/26/5
f 23/25/5 5/24/5 6/27/5
f 24/28/6 12/29/6 2/30/6
f 12/29/6 24/28/6 13/31/6
f 27/32/7 26/33/7 25/34/7
f 26/33/7 27/32/7 28/35/7
f 23/36/8 19/37/8 16/38/8
f 19/37/8 23/36/8 27/39/8
f 17/40/9 29/41/9 15/42/9
f 29/41/9 17/40/9 30/43/9
f 8/44/10 7/45/10 31/46/10
f 32/47/11 5/48/11 24/49/11
f 5/48/11 32/47/11 31/50/11
f 5/48/11 31/50/11 7/51/11
f 2/52/12 29/53/12 1/54/12
f 29/53/12 2/52/12 12/55/12
f 18/56/13 27/57/13 25/58/13
f 27/57/13 18/56/13 19/59/13
f 21/60/14 30/61/14 17/62/14
f 30/61/14 21/60/14 33/63/14
f 34/64/15 6/65/15 9/66/15
f 6/65/15 34/64/15 28/67/15
f 37/68/16 36/69/17 35/70/18
f 36/69/17 37/68/16 38/71/17
f 23/72/19 14/73/19 22/74/19
f 14/73/19 23/72/19 16/75/19
f 40/76/20 36/77/20 39/78/20
f 36/77/20 40/76/20 35/79/20
f 12/80/21 15/81/21 29/82/21
f 15/81/21 12/80/21 10/83/21
f 41/84/22 35/85/18 33/86/23
f 35/85/18 41/84/22 37/87/16
f 21/88/24 41/89/22 33/90/23
f 41/89/22 21/88/24 20/91/24
f 40/92/25 29/93/25 30/94/25
f 29/93/25 40/92/25 1/95/25
f 36/96/26 38/97/26 39/98/26
f 42/99/26 39/98/26 38/97/26
f 9/100/26 39/98/26 42/99/26
f 9/100/26 3/101/26 39/98/26
f 8/102/26 3/101/26 9/100/26
f 31/103/26 3/101/26 8/102/26
f 31/103/26 4/104/26 3/101/26
f 4/104/26 31/103/26 32/105/26
f 9/100/26 42/99/26 34/106/26
f 26/107/27 38/108/27 37/109/27
f 38/108/27 26/107/27 42/110/27
f 28/111/28 42/112/28 26/113/28
f 42/112/28 28/111/28 34/114/28
f 35/115/29 30/116/29 33/117/29
f 30/116/29 35/115/29 40/118/29
f 23/119/30 28/120/30 27/121/30
f 28/120/30 23/119/30 6/122/30
f 20/123/31 25/124/31 41/125/31
f 25/124/31 20/123/31 18/126/31
f 5/127/32 13/128/32 24/129/32
f 13/128/32 5/127/32 22/130/32
f 25/131/33 37/132/33 41/133/33
f 37/132/33 25/131/33 26/134/33
f 32/135/34 2/136/34 4/137/34
f 2/136/34 32/135/34 24/138/34
f 39/139/35 1/140/35 40/141/35
f 1/140/35 39/139/35 3/142/35
f 22/143/36 11/144/36 13/145/36
f 11/144/36 22/143/36 14/146/36
