# Blender 5.2.0 LTS
# www.blender.org
mtllib pedra3.mtl
o stone_tallB.001
v 2.160341 0.000000 0.501362
v 1.854050 0.000000 2.168498
v 1.401873 1.490465 0.641045
v 1.243177 1.490465 1.504827
v 0.071169 3.659595 -0.983891
v 0.169729 5.302678 -0.813180
v -0.293868 3.659595 -0.351628
v -0.096748 5.302678 -0.351628
v -0.423873 1.060752 -1.495812
v -0.297044 3.659595 -1.276138
v -0.670599 1.060752 -1.068471
v -0.710703 2.715525 -0.719260
v -0.930248 3.659595 -0.179396
v -1.022393 2.715525 -0.179396
v -1.742606 -0.000000 -1.476461
v -1.238839 1.060752 -1.142397
v -1.862743 -0.000000 -1.028108
v -1.287357 1.060752 -0.961324
v -1.909609 0.000000 0.579391
v -1.611024 1.180579 0.623335
v -2.063321 0.000000 0.845629
v -1.534546 1.926991 0.845628
v -1.315263 1.926991 0.465818
v -0.671764 -0.000000 -2.310112
v -0.544698 1.060752 -1.682786
v -0.916467 1.060752 -1.068471
v -0.867036 2.715525 -0.719260
v 1.763988 -0.000000 -2.260980
v 2.294365 -0.000000 -1.067210
v 1.657913 1.039104 -2.022226
v 2.082213 1.039104 -1.067211
v 0.801242 3.659595 -0.983891
v 0.702682 5.302678 -0.813180
v -1.150466 1.926991 0.465818
v -1.233254 2.715525 0.299411
v -1.408564 2.715525 0.299411
v 1.075222 1.490465 1.100697
v 0.748724 1.490465 1.100697
v 0.969364 3.659595 0.917345
v 0.219578 1.926991 1.063799
v -0.381599 1.926991 1.063799
v -0.297044 3.659595 0.917345
v 0.454931 0.883768 1.151980
v 1.602568 3.659595 -0.179396
v 1.166279 3.659595 -0.351628
v 0.969364 3.659595 -1.276138
v 0.801242 3.659595 0.280634
v 0.071169 3.659595 0.280634
v -0.956915 2.715525 -0.065985
v -0.910238 1.926991 0.148169
v 0.169729 5.302678 0.109923
v -1.721300 2.715525 -0.342159
v -2.294365 -0.000000 -0.209924
v 0.426756 0.000000 2.310112
v 0.910046 1.490465 1.537880
v 0.118932 -0.000000 -2.098247
v -0.375363 1.060752 -1.637413
v -0.347872 1.060752 -1.495812
v 0.890558 2.208096 -1.398829
v 1.040200 2.208096 -1.398829
v 0.819430 1.039104 -1.497642
v 0.576246 1.039104 -1.497642
v 0.218486 -0.000000 -1.585474
v 0.403118 -0.000000 -1.585474
v 0.930904 1.039104 -1.748547
v 0.988418 2.208096 -1.619094
v 0.969159 5.302678 -0.351628
v 0.702682 5.302678 0.109923
v 0.271582 0.000000 1.889590
v 1.839030 1.039104 -1.067211
v 1.536322 1.039104 -1.748547
v 0.809312 1.039104 -2.022226
v 1.761946 1.039104 -0.346352
v 1.624518 1.039104 -0.584386
v 0.703237 -0.000000 -2.260980
v 1.478807 2.208096 -1.619094
v -1.721300 2.715525 -0.472471
v 1.724001 2.208096 -1.067211
v -1.328912 0.000000 2.117661
v -1.064525 1.926991 1.659730
v -2.294365 -0.000000 -0.903417
v 0.139904 0.000000 2.117661
v -0.124483 1.926991 1.659730
v 1.509893 2.208096 -0.585297
v 1.925944 -0.000000 -0.237968
v 1.959760 -0.000000 -0.179396
v 1.855970 0.000000 0.000372
v 1.370457 1.490465 0.589335
vn 0.8854 0.4353 0.1627
vn -0.8614 0.1033 -0.4973
vn -0.8629 0.0842 -0.4982
vn -0.8498 0.4753 -0.2277
vn -0.8426 0.2312 -0.4865
vn -0.5405 0.4753 -0.6942
vn -0.1371 0.2085 -0.9684
vn -0.0000 0.2065 -0.9784
vn 0.8984 0.1834 -0.3991
vn -0.0000 0.1033 -0.9946
vn -0.0000 0.2065 0.9784
vn -0.0000 0.0842 0.9964
vn -0.0000 1.0000 -0.0000
vn -0.8629 0.0842 0.4982
vn -0.8614 0.1033 0.4973
vn -0.8795 0.2065 0.4287
vn 0.0889 0.4353 0.8959
vn 0.2277 0.4753 -0.8498
vn -0.0000 0.0842 -0.9964
vn -0.9102 0.0896 -0.4044
vn 0.8614 0.1033 0.4973
vn -0.8446 0.4353 0.3117
vn -0.0000 0.1033 0.9946
vn -0.8984 0.1834 -0.3991
vn 0.7804 0.2065 0.5902
vn -0.0000 0.1101 -0.9939
vn 0.9102 0.0896 -0.4044
vn -0.8426 0.2312 0.4865
vn 0.8614 0.1033 -0.4973
vn -0.2716 0.2065 -0.9400
vn -0.0000 0.2312 0.9729
vn 0.8629 0.0842 -0.4982
vn 0.8630 0.0842 -0.4982
vn -0.0000 0.2239 -0.9746
vn 0.8629 0.0842 0.4982
vn 0.7694 0.4353 -0.4674
vn -0.9784 0.2065 -0.0000
vn 0.9102 0.0896 0.4044
vn 0.8984 0.1834 0.3991
vn 0.8426 0.2312 0.4865
vn 0.8637 0.4753 -0.1677
vn -0.0000 -1.0000 -0.0000
vt -2.474910 4.535046
vt -11.796440 -6.328359
vt -0.674141 -6.328359
vt -8.237636 4.535046
vt -1.034022 23.592739
vt -5.177812 34.432159
vt -5.824532 23.592739
vt -1.680741 34.432159
vt -3.871545 6.319356
vt -6.277201 23.432940
vt -7.109412 6.319356
vt -1.755547 17.216169
vt 2.032563 23.432940
vt 2.334877 17.216169
vt -3.352781 -6.441593
vt -5.136722 1.469513
vt -6.398511 -6.441593
vt -3.906666 1.469513
vt 11.574780 -2.069402
vt 8.827664 5.892913
vt 9.557560 -2.069402
vt 9.839955 10.927020
vt 6.962214 10.927020
vt 1.809501 0.938837
vt -5.833458 -6.972268
vt 3.071292 -6.972269
vt -3.962727 0.938836
vt 5.689212 16.459900
vt 4.400254 5.362659
vt 6.013565 5.362659
vt 4.663405 16.459900
vt 7.709310 3.890980
vt 0.286955 -3.044954
vt 8.858390 -3.044953
vt 0.852161 3.890980
vt -1.113707 34.056782
vt -5.257497 23.217360
vt -0.466989 23.217360
vt -4.610777 34.056782
vt -8.092218 17.028749
vt -8.630333 11.740680
vt -7.548994 11.740680
vt -9.242541 17.028749
vt -10.571020 6.735092
vt 6.360656 23.420771
vt 4.912884 9.136875
vt 7.055263 9.136875
vt 1.440802 12.011430
vt -2.503929 12.011430
vt -1.949108 23.420771
vt 2.985113 5.141730
vt -6.360656 -8.373606
vt -7.652750 -2.307271
vt -10.515540 -1.177139
vt -5.257497 -6.455974
vt 1.949108 -8.373606
vt -0.466989 -6.455974
vt 1.928266 -2.307271
vt -6.360656 6.019327
vt -5.257497 1.841429
vt 1.949108 6.019327
vt -0.466989 1.841429
vt 6.103990 -1.177139
vt -3.514451 17.315319
vt -4.071428 23.532089
vt -4.373742 17.315319
vt 4.238336 23.532089
vt -2.144361 12.122750
vt 4.793157 12.122750
vt 1.828219 23.831169
vt -2.315569 34.670589
vt -2.962288 23.831169
vt 1.181501 34.670589
vt -7.834785 -2.669679
vt -2.283805 15.541170
vt -6.967100 15.541180
vt -2.072985 -2.669679
vt -0.955324 5.247520
vt 7.142548 4.176304
vt 1.289920 -6.687099
vt 10.701350 -6.687099
vt 4.945916 4.176303
vt 6.310196 1.493941
vt 2.809609 -6.417162
vt 8.180928 -6.417162
vt 5.159875 1.493942
vt 1.949108 23.222469
vt 2.282623 6.108887
vt 2.781321 6.108887
vt -5.843556 13.664240
vt -6.825459 13.664240
vt -6.360656 23.222469
vt -5.376835 5.966334
vt -3.781140 5.966334
vt -1.433633 -0.876249
vt -2.645134 -0.876249
vt -11.163690 6.873600
vt -12.342180 14.575100
vt -12.965220 6.873600
vt -10.760660 14.575100
vt 1.680741 34.158279
vt 5.824530 23.318850
vt 5.177812 34.158279
vt 1.034024 23.318850
vt 8.124928 5.300632
vt 11.534330 9.722602
vt 8.476603 9.722602
vt 12.249120 -1.140803
vt 15.190320 -1.140803
vt -4.610777 -5.335823
vt -4.610777 0.721281
vt -6.359313 -2.307271
vt -1.113707 -5.335823
vt -1.113707 0.721281
vt 0.634828 -2.307271
vt 4.610777 34.533649
vt 0.466989 23.694229
vt 5.257497 23.694229
vt 1.113707 34.533649
vt -10.878700 -13.269200
vt -12.067130 -7.002693
vt -13.662820 -7.002693
vt -10.080850 -11.473410
vt -5.310445 -13.269200
vt -6.108291 -11.473410
vt -5.376835 -9.827045
vt -3.781140 -9.827045
vt -11.561330 -2.272652
vt -10.659570 -3.834554
vt -10.581250 -0.331370
vt -14.282400 6.604563
vt -15.431480 -0.331370
vt -10.515800 6.604563
vt -6.448183 18.522430
vt -4.378158 13.234360
vt -3.442123 18.522430
vt -6.991408 13.234360
vt -6.485685 13.231440
vt -10.080850 5.513998
vt -6.108291 5.513998
vt -9.703456 13.231440
vt 5.689212 -4.719550
vt 6.708619 -1.177139
vt 4.663405 -4.719550
vt 11.294620 -3.100204
vt 8.092218 1.964640
vt 9.242541 1.964640
vt 11.294620 -2.245138
vt 6.278973 -0.432971
vt 5.769099 13.250040
vt 1.500046 5.548538
vt 6.392140 5.548538
vt 1.806502 13.250040
vt 7.673832 -3.352284
vt -0.229249 9.644139
vt -1.964072 -3.352284
vt 5.939011 9.644139
vt 2.315571 33.919842
vt -1.828219 23.080420
vt 2.962290 23.080420
vt -1.181501 33.919842
vt 9.990464 16.172150
vt 9.870214 -2.038707
vt 12.818200 -2.038707
vt 6.364666 5.074908
vt 3.831487 5.074908
vt 4.155838 16.172150
vt -0.816815 9.783774
vt -8.719898 -3.212649
vt 0.918008 -3.212649
vt -6.985074 9.783774
vt 4.071428 23.111151
vt -1.627719 13.552920
vt 4.536233 13.552920
vt -4.238335 23.111151
vt -2.008961 5.855011
vt -3.812488 5.855011
vt -4.966439 -0.987572
vt -5.410225 -0.987572
vt -5.310445 3.673696
vt -11.574730 -3.322238
vt -4.614413 -3.322238
vt -10.878700 3.673696
vt 2.503929 6.980305
vt 0.816815 10.890610
vt -1.440802 6.980305
vt 6.985074 10.890610
vt 5.972689 0.972239
vt 7.548994 3.056547
vt 10.069200 5.548743
vt 8.630333 3.056547
vt -2.032563 23.210300
vt 7.449090 -0.888425
vt 6.277200 23.210300
vt 6.087028 -0.888425
vt 1.147307 8.926405
vt -2.727170 8.926405
vt -7.974035 6.332923
vt -10.171820 -4.530481
vt -6.325355 -4.530481
vt -8.371052 6.332923
vt -1.377455 -3.108613
vt -3.100204 15.102240
vt -5.927934 -3.108613
vt -2.245138 15.102240
vt 7.532323 13.759340
vt 11.298990 6.057834
vt 10.992530 13.759340
vt 7.832239 6.057834
vt 2.463013 -10.744180
vt 2.781321 -9.815039
vt 2.282623 -9.815039
vt 3.574137 -11.041900
vt 4.400254 -7.010963
vt 8.128862 -7.496045
vt 6.013565 -7.010963
vt 8.447225 -6.307902
vt 6.771008 4.933962
vt 12.512080 -2.001971
vt 11.946870 4.933962
vt 6.557996 -2.001971
vt -9.839954 11.206290
vt -5.053663 4.170365
vt -5.324720 11.206290
vt -9.846729 -1.790135
vt -11.574780 -1.790135
vt 11.016660 6.299730
vt 9.939447 -1.611376
vt 13.366920 -1.611376
vt 10.070170 6.299730
vt -9.703456 -10.623970
vt -9.907436 -3.840531
vt -11.312340 -7.002693
vt -6.825459 -9.178671
vt -6.485685 -10.623970
vt -5.843556 -9.178671
vt -8.992500 3.867026
vt -8.157327 9.874194
vt -9.198641 4.206331
vt -7.055263 7.222422
vt -5.971429 10.091080
vt -4.912884 7.222422
s 1
usemtl stone.010
f 3/1/1 2/2/1 1/3/1
f 2/2/1 3/1/1 4/4/1
f 7/5/2 6/6/2 5/7/2
f 6/6/2 7/5/2 8/8/2
f 11/9/3 10/10/3 9/11/3
f 10/10/3 11/9/3 12/12/3
f 10/10/3 12/12/3 13/13/3
f 13/13/3 12/12/3 14/14/3
f 17/15/4 16/16/4 15/17/4
f 16/16/4 17/15/4 18/18/4
f 21/19/5 20/20/5 19/21/5
f 22/22/5 20/20/5 21/19/5
f 20/20/5 22/22/5 23/23/5
f 16/24/6 24/25/6 15/26/6
f 24/25/6 16/24/6 25/27/6
f 27/28/7 11/29/8 26/30/7
f 11/29/8 27/28/7 12/31/8
f 30/32/9 29/33/9 28/34/9
f 29/33/9 30/32/9 31/35/9
f 6/36/10 32/37/10 5/38/10
f 32/37/10 6/36/10 33/39/10
f 35/40/11 23/41/11 34/42/11
f 36/43/11 23/41/11 35/40/11
f 23/41/11 36/43/11 20/44/11
f 39/45/12 38/46/12 37/47/12
f 38/46/12 39/45/12 40/48/12
f 40/48/12 39/45/12 41/49/12
f 41/49/12 39/45/12 42/50/12
f 40/48/12 43/51/12 38/46/12
f 46/52/13 45/53/13 44/54/13
f 45/53/13 46/52/13 32/55/13
f 32/55/13 46/52/13 10/56/13
f 32/55/13 10/56/13 5/57/13
f 5/57/13 10/56/13 7/58/13
f 45/53/13 39/59/13 44/54/13
f 39/59/13 45/53/13 47/60/13
f 39/59/13 47/60/13 42/61/13
f 42/61/13 7/58/13 10/56/13
f 42/61/13 47/60/13 48/62/13
f 42/61/13 48/62/13 7/58/13
f 42/61/13 10/56/13 13/63/13
f 49/64/14 13/65/14 14/66/14
f 13/65/14 49/64/14 42/67/14
f 42/67/14 49/64/14 50/68/14
f 42/67/14 50/68/14 41/69/14
f 48/70/15 8/71/15 7/72/15
f 8/71/15 48/70/15 51/73/15
f 53/74/16 36/75/16 52/76/16
f 36/75/16 53/74/16 19/77/16
f 36/75/16 19/77/16 20/78/16
f 4/79/17 54/80/17 2/81/17
f 54/80/17 4/79/17 55/82/17
f 25/83/18 56/84/18 24/85/18
f 56/84/18 25/83/18 57/86/18
f 10/87/19 58/88/19 9/89/19
f 58/88/19 10/87/19 59/90/19
f 59/90/19 10/87/19 60/91/19
f 60/91/19 10/87/19 46/92/19
f 61/93/19 58/88/19 59/90/19
f 62/94/19 58/88/19 61/93/19
f 62/94/19 63/95/19 58/88/19
f 63/95/19 62/94/19 64/96/19
f 61/97/20 66/98/20 65/99/20
f 66/98/20 61/97/20 59/100/20
f 68/101/21 45/102/21 67/103/21
f 45/102/21 68/101/21 47/104/21
f 43/105/22 55/106/22 38/107/22
f 55/106/22 43/105/22 69/108/22
f 55/106/22 69/108/22 54/109/22
f 33/110/13 68/111/13 67/112/13
f 68/111/13 33/110/13 6/113/13
f 68/111/13 6/113/13 51/114/13
f 51/114/13 6/113/13 8/115/13
f 68/116/23 48/117/23 47/118/23
f 48/117/23 68/116/23 51/119/23
f 30/120/13 70/121/13 31/122/13
f 70/121/13 30/120/13 71/123/13
f 71/123/13 30/120/13 72/124/13
f 71/123/13 72/124/13 65/125/13
f 65/125/13 72/124/13 61/126/13
f 61/126/13 72/124/13 62/127/13
f 70/121/13 73/128/13 31/122/13
f 73/128/13 70/121/13 74/129/13
f 64/130/24 72/131/24 75/132/24
f 72/131/24 64/130/24 62/133/24
f 35/134/25 50/135/25 49/136/25
f 50/135/25 35/134/25 34/137/25
f 66/138/26 71/139/26 65/140/26
f 71/139/26 66/138/26 76/141/26
f 27/142/13 14/143/13 12/144/13
f 14/143/13 27/142/13 77/145/13
f 14/143/13 77/145/13 35/146/13
f 35/146/13 77/145/13 36/147/13
f 36/147/13 77/145/13 52/148/13
f 35/146/13 49/149/13 14/143/13
f 76/150/27 70/151/27 71/152/27
f 70/151/27 76/150/27 78/153/27
f 79/154/28 22/155/28 21/156/28
f 22/155/28 79/154/28 80/157/28
f 33/158/29 45/159/29 32/160/29
f 45/159/29 33/158/29 67/161/29
f 77/162/30 17/163/30 81/164/30
f 17/163/30 77/162/30 18/165/30
f 18/165/30 77/162/30 26/166/7
f 26/166/7 77/162/30 27/167/7
f 83/168/31 79/169/31 82/170/31
f 79/169/31 83/168/31 80/171/31
f 46/172/32 84/173/32 60/174/32
f 84/173/32 46/172/32 44/175/32
f 84/173/32 44/175/32 74/176/32
f 74/176/32 44/175/32 73/177/32
f 73/177/32 44/175/32 85/178/33
f 85/178/33 44/175/32 86/179/33
f 72/180/34 28/181/34 75/182/34
f 28/181/34 72/180/34 30/183/34
f 41/184/13 83/185/13 40/186/13
f 83/185/13 41/184/13 80/187/13
f 80/187/13 41/184/13 50/188/13
f 80/187/13 50/188/13 34/189/13
f 80/187/13 34/189/13 22/190/13
f 22/190/13 34/189/13 23/191/13
f 39/192/35 86/193/35 44/194/35
f 86/193/35 39/192/35 87/195/35
f 87/195/35 39/192/35 88/196/35
f 88/196/35 39/192/35 37/197/35
f 88/198/36 1/199/36 87/200/36
f 1/199/36 88/198/36 3/201/36
f 53/202/37 77/203/37 81/204/37
f 77/203/37 53/202/37 52/205/37
f 84/206/38 70/207/38 78/208/38
f 70/207/38 84/206/38 74/209/38
f 57/210/13 9/211/13 58/212/13
f 9/211/13 57/210/13 25/213/13
f 9/211/13 25/213/13 11/214/13
f 11/214/13 25/213/13 16/215/13
f 11/214/13 16/215/13 26/216/13
f 26/216/13 16/215/13 18/217/13
f 73/218/39 29/219/39 31/220/39
f 29/219/39 73/218/39 85/221/39
f 83/222/40 43/223/40 40/224/40
f 43/223/40 83/222/40 69/225/40
f 69/225/40 83/222/40 82/226/40
f 57/227/41 63/228/41 56/229/41
f 63/228/41 57/227/41 58/230/41
f 76/231/13 84/232/13 78/233/13
f 84/232/13 76/231/13 60/234/13
f 60/234/13 76/231/13 66/235/13
f 60/234/13 66/235/13 59/236/13
f 88/237/13 4/238/13 3/239/13
f 4/238/13 88/237/13 37/240/13
f 4/238/13 37/240/13 55/241/13
f 55/241/13 37/240/13 38/242/13
usemtl _defaultMat.013
f 87/225/42 85/222/42 86/226/42
f 2/225/42 87/222/42 1/226/42
f 85/225/42 28/222/42 29/226/42
f 28/225/42 85/222/42 87/226/42
f 28/225/42 87/222/42 2/226/42
f 28/225/42 2/222/42 54/226/42
f 28/225/42 54/222/42 75/226/42
f 75/225/42 54/222/42 64/226/42
f 64/225/42 54/222/42 69/226/42
f 64/225/42 69/222/42 63/226/42
f 63/225/42 69/222/42 82/226/42
f 63/225/42 82/222/42 56/226/42
f 56/225/42 82/222/42 79/226/42
f 56/225/42 79/222/42 24/226/42
f 24/225/42 79/222/42 15/226/42
f 15/225/42 79/222/42 19/226/42
f 19/225/42 79/222/42 21/226/42
f 15/225/42 19/222/42 17/226/42
f 19/225/42 81/222/42 17/226/42
f 81/225/42 19/222/42 53/226/42
