# Blender 5.2.0 LTS
# www.blender.org
mtllib pedra4.mtl
o stone_tallF
v -0.323179 2.402928 0.596403
v -1.497474 2.402928 -0.000000
v -0.248848 5.163048 0.328966
v -1.153055 5.163048 -0.130265
v -0.000000 0.000000 2.305512
v -1.996632 0.000000 1.152756
v -0.000000 2.402928 1.729134
v -1.803740 0.928574 1.041390
v -1.028860 2.402928 1.135121
v -0.000000 -0.000000 -2.305512
v 1.996632 -0.000000 -1.152756
v -0.000000 2.402928 -1.729134
v 1.497474 2.402928 -0.864567
v -1.497474 2.402928 0.323458
v 1.497474 2.402928 -0.000000
v 1.478662 2.553684 -0.007115
v 0.777115 5.163048 -0.007115
v 1.153055 5.163048 -0.525861
v -1.996632 -0.000000 -1.152756
v -1.497474 2.402928 -0.864567
v 1.996632 0.000000 1.152756
v 1.497474 2.402928 0.864567
v -1.153055 5.163048 -0.795981
v 0.000000 5.163048 -1.461697
v 1.153055 5.163048 -0.795981
vn -0.4506 0.0981 0.8873
vn -0.4895 0.2034 0.8479
vn 0.4895 0.2034 -0.8479
vn -0.7975 0.3899 0.4604
vn 0.3102 0.0834 0.9470
vn 0.7912 0.2127 0.5734
vn -0.9791 0.2034 -0.0000
vn -0.4895 0.2034 -0.8479
vn 0.9791 0.2034 -0.0000
vn -0.4982 0.0836 -0.8630
vn -0.9923 0.1238 -0.0000
vn 0.4982 0.0836 -0.8630
vn -0.0000 1.0000 -0.0000
vn 0.9923 0.1238 -0.0000
vn 0.4895 0.2034 0.8479
vn -0.0000 -1.0000 -0.0000
vt -0.318932 22.302311
vt -5.840533 10.169760
vt -0.079086 10.169760
vt -4.755246 22.302311
vt 3.782007 8.959475
vt -5.042678 -1.776419
vt 5.042677 -1.776419
vt -4.555513 2.372300
vt -1.414954 8.959475
vt 3.782008 8.959475
vt -3.782008 8.959475
vt 2.049930 7.192153
vt -2.049929 7.192153
vt 0.000001 0.188456
vt 6.156628 10.966580
vt -2.155646 10.304790
vt 6.225141 10.304790
vt -1.482459 22.421030
vt 3.240227 22.421030
vt 3.820910 9.805074
vt 4.822526 21.486971
vt 2.020046 21.486971
vt 5.042678 -1.776420
vt -3.782008 8.959474
vt -5.042677 -1.776420
vt 0.000000 8.959474
vt 1.414953 8.959474
vt 4.555512 2.372299
vt -5.042677 -1.776419
vt 5.042678 -1.776419
vt 3.782008 8.959474
vt 5.042677 -1.776420
vt 0.000000 8.959474
vt 2.627229 22.043381
vt -3.782007 9.926932
vt 3.782008 9.926932
vt -3.197063 22.043381
vt -0.000000 9.619478
vt -3.481980 21.787130
vt -3.782008 9.619478
vt -0.569834 21.787130
vt 3.197063 22.043381
vt -3.782008 9.926932
vt 3.782007 9.926932
vt -2.627229 22.043381
vt -0.000000 -6.394126
vt -5.043984 -2.300354
vt -5.043984 -3.481980
vt -3.399451 -0.031124
vt 1.088573 1.439046
vt 5.043984 -3.481980
vt 5.043984 -0.569834
vt 1.413731 2.608936
vt -6.550630 3.782008
vt -6.550630 -0.000000
vt 0.000000 7.564016
vt 4.500701 4.965535
vt 6.550630 0.000000
vt 6.550630 1.414953
vt 3.481980 21.787130
vt -0.000001 9.619478
vt 3.782007 9.619478
vt 2.300354 21.787130
vt 0.031123 10.284070
s 1
usemtl stone.019
f 3/1/1 2/2/1 1/3/1
f 2/2/1 3/1/1 4/4/1
f 7/5/2 6/6/2 5/7/2
f 6/6/2 7/5/2 8/8/2
f 8/8/2 7/5/2 9/9/2
f 12/10/3 11/6/3 10/7/3
f 11/6/3 12/10/3 13/11/3
f 9/12/4 14/13/4 8/14/4
f 16/15/5 1/16/5 15/17/5
f 1/16/5 16/15/5 3/18/5
f 3/18/5 16/15/5 17/19/5
f 16/20/6 18/21/6 17/22/6
f 6/23/7 20/24/7 19/25/7
f 20/24/7 6/23/7 2/26/7
f 2/26/7 6/23/7 14/27/7
f 14/27/7 6/23/7 8/28/7
f 20/10/8 10/29/8 19/30/8
f 10/29/8 20/10/8 12/11/8
f 13/31/9 21/25/9 11/32/9
f 21/25/9 13/31/9 15/33/9
f 21/25/9 15/33/9 22/24/9
f 23/34/10 12/35/10 20/36/10
f 12/35/10 23/34/10 24/37/10
f 2/38/11 23/39/11 20/40/11
f 23/39/11 2/38/11 4/41/11
f 24/42/12 13/43/12 12/44/12
f 13/43/12 24/42/12 25/45/12
f 24/46/13 18/47/13 25/48/13
f 18/47/13 24/46/13 17/49/13
f 17/49/13 24/46/13 3/50/13
f 3/50/13 24/46/13 23/51/13
f 3/50/13 23/51/13 4/52/13
f 1/53/13 22/54/13 15/55/13
f 22/54/13 1/53/13 7/56/13
f 7/56/13 1/53/13 9/57/13
f 9/57/13 1/53/13 2/58/13
f 9/57/13 2/58/13 14/59/13
f 25/60/14 15/61/14 13/62/14
f 15/61/14 25/60/14 18/63/14
f 15/61/14 18/63/14 16/64/14
f 22/10/15 5/29/15 21/30/15
f 5/29/15 22/10/15 7/11/15
usemtl _defaultMat.018
f 5/50/16 11/51/16 21/52/16
f 11/50/16 5/51/16 10/52/16
f 10/50/16 5/51/16 6/52/16
f 10/50/16 6/51/16 19/52/16
