# Blender 5.2.0 LTS
# www.blender.org
mtllib pedra2.mtl
o stone_tallA
v 1.562566 1.055589 -0.019647
v 2.783485 1.055589 -0.278472
v 1.542553 2.260339 0.036661
v 2.397196 2.260339 -0.144516
v -0.401464 -0.000000 -1.463550
v 0.901529 -0.000000 -2.635496
v 0.000624 0.642533 -1.283910
v 0.997902 0.642533 -2.180888
v 0.306872 0.642533 -1.559358
v 0.068408 4.754743 1.979439
v -1.356814 4.754743 1.515505
v -0.024969 6.971481 1.831713
v -1.207902 6.971481 1.446647
v -1.767226 0.000000 1.783228
v -1.896995 0.000000 1.171087
v -1.556282 3.405424 1.593499
v -1.736998 3.405424 0.741030
v -1.928149 1.618195 0.461141
v -1.917714 3.405424 -0.111438
v -2.059301 1.618195 -0.157527
v 3.592834 0.000000 0.356753
v 1.865259 0.000000 1.910580
v 3.150945 0.642533 0.212912
v 1.768886 0.642533 1.455972
v 1.539807 1.599688 1.014045
v 1.396754 3.405424 0.967480
v 1.451432 2.260339 0.827012
v 1.216038 3.405424 0.115011
v 1.190266 2.260339 -0.404950
v 1.035322 3.405424 -0.737457
v 1.235569 1.055589 -0.610392
v 1.180879 1.055589 -0.868375
v 1.315737 0.642533 1.308464
v 1.714917 1.055590 1.201391
v 1.476503 1.055590 1.123784
v 0.293197 1.055589 -1.157331
v 0.486825 1.055589 -1.331485
v 1.553345 0.642533 -1.234718
v 1.533863 1.055589 -1.058788
v 0.569602 4.754743 1.528653
v 0.391022 6.971481 1.457560
v -2.757424 0.000000 1.353490
v -2.385503 1.618195 0.558097
v 1.532507 2.260339 -0.327038
v 1.548214 1.055589 -0.539217
v 0.159790 0.000000 2.410505
v 0.100952 3.405424 2.132957
v 1.021124 0.000000 1.635799
v 1.182797 4.754743 0.977128
v 3.110969 -0.000000 -1.916284
v 3.040989 0.642533 -0.305770
v 2.765453 0.642533 -1.605518
v -1.512230 4.754743 0.782382
v -0.208940 4.754743 0.067398
v -1.336898 6.971481 0.838156
v -0.255167 6.971481 0.244719
v -2.056683 1.618195 -0.159881
v -2.381527 1.618195 -0.371087
v -1.618459 -0.000000 -0.711064
v -2.498361 -0.000000 -1.283156
v 1.587515 0.642533 0.002354
v 1.027382 4.754743 0.244006
v 2.875848 1.055589 0.157220
v 2.461851 2.260339 0.160469
v 1.649199 2.260339 0.891389
v -0.221545 3.405424 -0.090346
v -0.680750 -0.000000 -1.554463
v -0.621912 3.405424 -1.276915
v -3.545793 -0.000000 -0.134852
v -2.695413 1.618195 -0.026974
vn -0.2072 0.0422 -0.9774
vn -0.5588 0.5493 -0.6213
vn -0.5667 0.5308 -0.6301
vn -0.5668 0.5308 -0.6301
vn 0.9758 0.1385 -0.1689
vn -0.3091 0.0503 0.9497
vn -0.9757 0.0720 0.2068
vn 0.5667 0.5308 0.6301
vn 0.9757 0.0720 -0.2068
vn -0.2717 0.4790 0.8347
vn -0.5475 0.5743 -0.6087
vn 0.2320 0.3904 -0.8909
vn 0.6667 0.0775 0.7413
vn 0.1903 0.3975 0.8977
vn 0.9995 0.0179 -0.0276
vn -0.3087 0.0720 0.9484
vn 0.6670 0.0720 0.7416
vn 0.6654 0.1002 0.7398
vn 0.2457 -0.9060 0.3447
vn -0.2623 0.5308 0.8059
vn 0.8291 0.5308 -0.1758
vn 0.8289 0.5310 -0.1757
vn 0.8300 0.5293 -0.1759
vn -0.4801 0.0600 -0.8752
vn 0.5002 0.3975 -0.7693
vn -0.2070 -0.0645 -0.9762
vn -0.0000 1.0000 -0.0000
vn 0.6520 0.2221 0.7249
vn 0.1405 0.1137 -0.9835
vn 0.3087 0.0720 -0.9484
vn -0.3018 0.2221 0.9271
vn -0.3080 0.1002 0.9461
vn 0.8812 0.0559 -0.4695
vn 0.9665 0.1547 -0.2049
vn -0.6670 0.0720 -0.7416
vn -0.6669 0.0720 -0.7416
vn 0.2623 0.5308 -0.8059
vn -0.6779 0.3975 -0.6184
vn -0.9665 0.1547 0.2049
vn 0.8301 0.5291 -0.1760
vn -0.4782 0.1064 -0.8718
vn 0.9271 0.3191 -0.1965
vn 0.5870 0.4790 0.6527
vn 0.9979 0.0588 -0.0276
vn 0.2187 0.1720 -0.9605
vn -0.8109 0.3975 0.4295
vn -0.0000 -1.0000 -0.0000
vt -8.444401 12.785990
vt -15.639600 6.004069
vt -8.620188 6.004069
vt -13.357990 12.785990
vt -4.831561 0.213931
vt -13.682360 -4.050218
vt -3.825801 -4.050218
vt -12.375530 0.213931
vt -7.148192 0.213931
vt 3.055286 38.665508
vt -4.618019 26.182140
vt 3.811847 26.182140
vt -3.941503 38.665508
vt 6.952247 18.353491
vt 4.230725 -0.849409
vt 7.750098 -0.849409
vt 2.051162 18.353491
vt 0.288253 8.275457
vt -2.849922 18.353491
vt -3.268649 8.275457
vt 12.375520 -3.700810
vt 0.614015 -7.964960
vt 13.682360 -7.964961
vt 1.920850 -3.700811
vt -6.243165 12.174580
vt -6.952247 18.631620
vt -7.375309 8.449223
vt -2.051163 18.631620
vt 0.839741 12.174580
vt 2.849922 18.631620
vt 1.917244 5.381101
vt 3.400460 5.381101
vt 11.263010 3.564182
vt 9.314571 0.917720
vt 11.994840 0.917720
vt 9.852849 3.564182
vt -5.578932 2.714227
vt -7.148191 -0.123561
vt -4.831561 -0.123560
vt -7.043644 2.714228
vt -0.762222 2.367136
vt -6.704177 -0.156271
vt 0.540233 -0.156272
vt -6.847526 2.367135
vt -3.846935 38.505581
vt -7.158866 26.000389
vt -3.367558 26.000389
vt -6.993721 38.505581
vt -11.146590 8.236751
vt -16.750099 -1.681671
vt -11.803250 -1.681671
vt -13.776050 8.236751
vt -0.132191 5.778757
vt 1.600675 12.555710
vt -0.445657 12.555710
vt 2.791141 5.778757
vt 4.253155 18.295191
vt -6.346866 -0.907711
vt 5.051006 -0.907711
vt -5.549014 18.295191
vt 0.580717 2.854541
vt -8.398026 -0.768648
vt -1.882415 -0.768648
vt -7.600174 18.434259
vt 1.947597 5.183735
vt 2.625058 8.251857
vt 2.201994 18.434259
vt 1.270998 25.752171
vt -7.600175 18.124800
vt 2.201993 18.124800
vt -7.158866 25.752171
vt -3.367558 25.752171
vt 11.994840 0.563937
vt 8.308812 -3.700212
vt 13.301680 -3.700212
vt 9.314572 0.563937
vt 6.914860 -10.272350
vt -4.846652 -6.008195
vt -6.153486 -10.272350
vt -1.864603 -6.008195
vt 5.608025 -6.008195
vt 8.859597 39.170040
vt 1.212610 26.679951
vt 9.573283 26.679951
vt 1.920236 39.170040
vt 9.811430 0.639540
vt 12.367220 10.557960
vt 10.187990 10.557960
vt 15.714310 0.639540
vt -8.620188 5.814009
vt -17.088240 3.486007
vt -8.731799 3.486007
vt -15.639600 5.814009
vt 1.350967 -9.075060
vt 5.368075 -2.540847
vt -1.228207 -0.127125
vt 5.368075 -6.755781
vt 9.691177 10.189690
vt 2.652678 3.240239
vt 11.434600 3.240239
vt 3.543828 10.189690
vt 17.088240 -1.864603
vt 9.986698 4.981652
vt 8.731799 -1.864603
vt 17.088240 5.608025
vt 8.034230 10.835360
vt 3.507223 8.221695
vt 1.109727 26.630310
vt -6.862104 18.991831
vt 1.305372 18.991831
vt -5.914302 26.630310
vt 5.549012 18.689920
vt 4.694949 -0.512980
vt 6.346863 -0.512980
vt 2.231818 3.110209
vt 0.446752 5.439403
vt -4.803694 5.439403
vt -4.253156 18.689920
vt 10.371870 11.974140
vt 9.852851 5.024692
vt 11.263020 5.024692
vt 10.000370 8.163253
vt 9.202120 11.974140
vt 3.811847 25.558510
vt -5.549014 17.931141
vt 4.253155 17.931141
vt -4.618019 25.558510
vt 0.218020 26.768200
vt -8.269052 39.255341
vt -9.094213 26.768200
vt -0.539900 39.255341
vt -2.051162 17.908091
vt -6.755781 25.589550
vt -6.952247 17.908091
vt -2.540847 25.589550
vt 9.147245 1.160977
vt 7.510085 3.400460
vt 7.510085 1.917244
vt 9.674302 4.036405
vt 4.231544 6.758039
vt 2.963066 6.025684
vt 13.357990 -3.754363
vt 8.444401 -2.000917
vt 8.034230 -6.828038
vt 13.357990 -2.000917
vt 7.021199 0.839741
vt 7.021199 -6.243164
vt 8.813341 0.011881
vt 7.600176 18.550859
vt 7.999102 8.472823
vt 8.018903 8.472823
vt -2.201992 18.550859
vt -2.999844 -0.652044
vt 4.093507 -0.652044
vt -1.540165 -4.050818
vt -13.301670 -8.314967
vt -0.233330 -8.314967
vt -11.994840 -4.050817
vt 10.104290 3.858710
vt 4.137599 -6.059711
vt 12.879200 -6.059711
vt 7.484682 3.858710
vt -2.273857 -10.049010
vt -8.333254 -3.052220
vt -8.333254 -6.550614
vt -1.689373 -1.048830
vt 0.451340 -8.475615
vt 6.755781 24.991600
vt 2.051162 17.310141
vt 6.952247 17.310141
vt 2.540847 24.991600
vt -1.113570 0.755493
vt -10.421330 2.849922
vt -10.421330 -2.051162
vt -1.932402 7.751005
vt 6.556524 2.849922
vt 6.556524 -2.051162
vt -1.864603 -5.975325
vt -4.219371 -3.237515
vt -4.846652 -5.975325
vt -1.714451 -3.237515
vt 9.573283 26.565559
vt 0.848043 18.933281
vt 10.569760 18.933281
vt 1.212610 26.565559
vt -1.714451 0.635625
vt -3.754363 7.785318
vt -4.219371 0.635625
vt -2.000917 7.785318
vt 6.550614 38.508259
vt 2.540847 26.008249
vt 6.755781 26.008249
vt 3.052220 38.508259
vt 11.434600 -0.283928
vt 1.920849 -2.930389
vt 12.375520 -2.930389
vt 2.652677 -0.283928
vt -13.776050 -0.288253
vt -12.670390 4.819504
vt -14.798770 3.292294
vt -11.146590 -0.288253
vt -11.146590 3.268649
vt -11.129440 3.278550
vt 6.700553 3.082698
vt -0.132193 5.409880
vt -0.259762 3.082698
vt 2.791140 5.409880
vt 5.714473 5.409880
vt -6.021841 11.885700
vt -7.817199 5.007305
vt -6.013803 5.007306
vt -7.995955 11.885700
vt -3.506384 3.054598
vt -10.005040 -6.863822
vt -0.532332 -6.863822
vt -7.230127 3.054598
s 1
usemtl stone.003
f 3/1/1 2/2/1 1/3/1
f 2/2/1 3/1/1 4/4/1
f 7/5/2 6/6/3 5/7/3
f 6/6/3 7/5/2 8/8/4
f 8/8/4 7/5/2 9/9/5
f 12/10/6 11/11/6 10/12/6
f 11/11/6 12/10/6 13/13/6
f 16/14/7 15/15/7 14/16/7
f 15/15/7 16/14/7 17/17/7
f 15/15/7 17/17/7 18/18/7
f 18/18/7 17/17/7 19/19/7
f 18/18/7 19/19/7 20/20/7
f 23/21/8 22/22/8 21/23/8
f 22/22/8 23/21/8 24/24/8
f 27/25/9 26/26/9 25/27/9
f 26/26/9 27/25/9 28/28/9
f 28/28/9 27/25/9 29/29/9
f 28/28/9 29/29/9 30/30/9
f 30/30/9 29/29/9 31/31/9
f 30/30/9 31/31/9 32/32/9
f 34/33/10 33/34/10 24/35/10
f 33/34/10 34/33/10 35/36/10
f 36/37/11 9/38/5 7/39/2
f 9/38/5 36/37/11 37/40/11
f 37/41/12 38/42/12 9/43/12
f 38/42/12 37/41/12 39/44/12
f 41/45/13 10/46/13 40/47/13
f 10/46/13 41/45/13 12/48/13
f 18/49/14 42/50/14 15/51/14
f 42/50/14 18/49/14 43/52/14
f 1/53/15 44/54/15 3/55/15
f 44/54/15 1/53/15 45/56/15
f 47/57/16 14/58/16 46/59/16
f 14/58/16 47/57/16 16/60/16
f 33/61/17 46/62/17 48/63/17
f 46/62/17 33/61/17 47/64/17
f 47/64/17 33/61/17 35/65/17
f 47/64/17 35/65/17 25/66/17
f 47/64/17 25/66/17 26/67/17
f 49/68/18 47/69/18 26/70/18
f 47/69/18 49/68/18 10/71/18
f 10/71/18 49/68/18 40/72/19
f 24/73/20 48/74/20 22/75/20
f 48/74/20 24/73/20 33/76/20
f 50/77/21 23/78/22 21/79/21
f 23/78/22 50/77/21 51/80/23
f 51/80/23 50/77/21 52/81/21
f 55/82/24 54/83/24 53/84/24
f 54/83/24 55/82/24 56/85/24
f 59/86/25 58/87/25 57/88/25
f 58/87/25 59/86/25 60/89/25
f 1/90/26 51/91/26 61/92/26
f 51/91/26 1/90/26 2/93/26
f 40/94/27 62/95/27 54/96/27
f 62/95/27 40/94/27 49/97/27
f 64/98/28 34/99/28 63/100/28
f 34/99/28 64/98/28 65/101/28
f 51/102/27 38/103/27 61/104/27
f 52/105/27 38/103/27 51/102/27
f 8/106/27 38/103/27 52/105/27
f 38/103/27 8/106/27 9/107/27
f 54/108/29 28/109/29 66/110/29
f 28/109/29 54/108/29 62/111/29
f 68/112/30 5/113/30 67/114/30
f 5/113/30 68/112/30 7/115/30
f 7/115/30 68/112/30 36/116/30
f 36/116/30 68/112/30 32/117/30
f 32/117/30 68/112/30 30/118/30
f 65/119/31 35/120/31 34/121/31
f 35/120/31 65/119/31 25/122/31
f 25/122/31 65/119/31 27/123/31
f 10/124/32 16/125/32 47/126/32
f 16/125/32 10/124/32 11/127/32
f 54/128/33 41/129/33 40/130/33
f 41/129/33 54/128/33 56/131/33
f 28/132/34 49/133/34 26/134/34
f 49/133/34 28/132/34 62/135/34
f 45/136/27 32/137/27 31/138/27
f 39/139/27 32/137/27 45/136/27
f 37/140/27 32/137/27 39/139/27
f 32/137/27 37/140/27 36/141/27
f 64/142/27 3/143/27 65/144/27
f 3/143/27 64/142/27 4/145/27
f 29/146/27 65/144/27 3/143/27
f 65/144/27 29/146/27 27/147/27
f 29/146/27 3/143/27 44/148/27
f 19/149/35 57/150/35 20/151/36
f 68/152/35 57/150/35 19/149/35
f 67/153/35 57/150/35 68/152/35
f 57/150/35 67/153/35 59/154/35
f 8/155/37 50/156/37 6/157/37
f 50/156/37 8/155/37 52/158/37
f 70/159/38 60/160/38 69/161/38
f 60/160/38 70/159/38 58/162/38
f 12/163/27 55/164/27 13/165/27
f 55/164/27 12/163/27 56/166/27
f 56/166/27 12/163/27 41/167/27
f 11/168/39 17/169/39 16/170/39
f 17/169/39 11/168/39 53/171/39
f 66/172/27 19/173/27 17/174/27
f 19/173/27 66/172/27 68/175/27
f 68/175/27 66/172/27 30/176/27
f 30/176/27 66/172/27 28/177/27
f 51/178/23 63/179/40 23/180/22
f 63/179/40 51/178/23 2/181/40
f 53/182/41 66/183/41 17/184/41
f 66/183/41 53/182/41 54/185/41
f 2/186/42 64/187/42 63/188/42
f 64/187/42 2/186/42 4/189/42
f 13/190/7 53/191/7 11/192/7
f 53/191/7 13/190/7 55/193/7
f 63/194/43 24/195/43 23/196/43
f 24/195/43 63/194/43 34/197/43
f 43/198/27 58/199/27 70/200/27
f 58/199/27 43/198/27 18/201/27
f 58/199/27 18/201/27 20/202/27
f 58/199/27 20/202/27 57/203/27
f 38/204/44 1/205/44 61/206/44
f 1/205/44 38/204/44 45/207/44
f 45/207/44 38/204/44 39/208/44
f 29/209/45 45/210/45 31/211/45
f 45/210/45 29/209/45 44/212/45
f 43/213/46 69/214/46 42/215/46
f 69/214/46 43/213/46 70/216/46
usemtl _defaultMat.006
f 60/166/47 42/163/47 69/167/47
f 42/166/47 60/163/47 15/167/47
f 15/166/47 60/163/47 59/167/47
f 15/166/47 59/163/47 14/167/47
f 14/166/47 59/163/47 46/167/47
f 46/166/47 59/163/47 67/167/47
f 46/166/47 67/163/47 5/167/47
f 46/166/47 5/163/47 48/167/47
f 48/166/47 5/163/47 6/167/47
f 48/166/47 6/163/47 22/167/47
f 22/166/47 6/163/47 50/167/47
f 22/166/47 50/163/47 21/167/47
